<?xml version="1.0" encoding="UTF-8"?>
<!--Generator: Apple Native CoreSVG 149-->
<!DOCTYPE svg
PUBLIC "-//W3C//DTD SVG 1.1//EN"
       "http://www.w3.org/Graphics/SVG/1.1/DTD/svg11.dtd">
<svg version="1.1" xmlns="http://www.w3.org/2000/svg" xmlns:xlink="http://www.w3.org/1999/xlink" width="3300" height="2200">
 <!--glyph: "uni1002B6.medium", point size: 100.0, font version: "17.0d9e1", template writer version: "59"-->
 <g id="Notes">
  <rect height="2200" id="artboard" style="fill:white;opacity:1" width="3300" x="0" y="0"/>
  <line style="fill:none;stroke:black;opacity:1;stroke-width:0.5;" x1="263" x2="3036" y1="292" y2="292"/>
  <text style="stroke:none;fill:black;font-family:sans-serif;font-size:13;font-weight:bold;" transform="matrix(1 0 0 1 263 322)">Weight/Scale Variations</text>
  <text style="stroke:none;fill:black;font-family:sans-serif;font-size:13;text-anchor:middle;" transform="matrix(1 0 0 1 559.711 322)">Ultralight</text>
  <text style="stroke:none;fill:black;font-family:sans-serif;font-size:13;text-anchor:middle;" transform="matrix(1 0 0 1 856.422 322)">Thin</text>
  <text style="stroke:none;fill:black;font-family:sans-serif;font-size:13;text-anchor:middle;" transform="matrix(1 0 0 1 1153.13 322)">Light</text>
  <text style="stroke:none;fill:black;font-family:sans-serif;font-size:13;text-anchor:middle;" transform="matrix(1 0 0 1 1449.84 322)">Regular</text>
  <text style="stroke:none;fill:black;font-family:sans-serif;font-size:13;text-anchor:middle;" transform="matrix(1 0 0 1 1746.56 322)">Medium</text>
  <text style="stroke:none;fill:black;font-family:sans-serif;font-size:13;text-anchor:middle;" transform="matrix(1 0 0 1 2043.27 322)">Semibold</text>
  <text style="stroke:none;fill:black;font-family:sans-serif;font-size:13;text-anchor:middle;" transform="matrix(1 0 0 1 2339.98 322)">Bold</text>
  <text style="stroke:none;fill:black;font-family:sans-serif;font-size:13;text-anchor:middle;" transform="matrix(1 0 0 1 2636.69 322)">Heavy</text>
  <text style="stroke:none;fill:black;font-family:sans-serif;font-size:13;text-anchor:middle;" transform="matrix(1 0 0 1 2933.4 322)">Black</text>
  <line style="fill:none;stroke:black;opacity:1;stroke-width:0.5;" x1="263" x2="3036" y1="1903" y2="1903"/>
  <g transform="matrix(1 0 0 1 263 1933)">
   <path d="M9.24805 0.830078Q10.8691 0.830078 12.2949 0.214844Q13.7207-0.400391 14.8096-1.49414Q15.8984-2.58789 16.5186-4.01367Q17.1387-5.43945 17.1387-7.05078Q17.1387-8.66211 16.5186-10.0879Q15.8984-11.5137 14.8047-12.6074Q13.7109-13.7012 12.2852-14.3164Q10.8594-14.9316 9.23828-14.9316Q7.62695-14.9316 6.20117-14.3164Q4.77539-13.7012 3.69141-12.6074Q2.60742-11.5137 1.9873-10.0879Q1.36719-8.66211 1.36719-7.05078Q1.36719-5.43945 1.9873-4.01367Q2.60742-2.58789 3.69629-1.49414Q4.78516-0.400391 6.21094 0.214844Q7.63672 0.830078 9.24805 0.830078ZM9.24805-0.654297Q7.91992-0.654297 6.7627-1.14746Q5.60547-1.64062 4.73145-2.51953Q3.85742-3.39844 3.36426-4.56055Q2.87109-5.72266 2.87109-7.05078Q2.87109-8.37891 3.35938-9.54102Q3.84766-10.7031 4.72168-11.582Q5.5957-12.4609 6.75293-12.9541Q7.91016-13.4473 9.23828-13.4473Q10.5762-13.4473 11.7334-12.9541Q12.8906-12.4609 13.7695-11.582Q14.6484-10.7031 15.1465-9.54102Q15.6445-8.37891 15.6445-7.05078Q15.6445-5.72266 15.1514-4.56055Q14.6582-3.39844 13.7842-2.51953Q12.9102-1.64062 11.748-1.14746Q10.5859-0.654297 9.24805-0.654297ZM5.83984-7.04102Q5.83984-6.71875 6.04492-6.51855Q6.25-6.31836 6.5918-6.31836L8.50586-6.31836L8.50586-4.39453Q8.50586-4.0625 8.70605-3.85742Q8.90625-3.65234 9.22852-3.65234Q9.56055-3.65234 9.76562-3.85742Q9.9707-4.0625 9.9707-4.39453L9.9707-6.31836L11.8945-6.31836Q12.2266-6.31836 12.4316-6.51855Q12.6367-6.71875 12.6367-7.04102Q12.6367-7.37305 12.4316-7.57812Q12.2266-7.7832 11.8945-7.7832L9.9707-7.7832L9.9707-9.69727Q9.9707-10.0391 9.76562-10.2441Q9.56055-10.4492 9.22852-10.4492Q8.90625-10.4492 8.70605-10.2441Q8.50586-10.0391 8.50586-9.69727L8.50586-7.7832L6.5918-7.7832Q6.25-7.7832 6.04492-7.57812Q5.83984-7.37305 5.83984-7.04102Z"/>
  </g>
  <g transform="matrix(1 0 0 1 281.867 1933)">
   <path d="M11.709 2.91016Q13.75 2.91016 15.5518 2.12891Q17.3535 1.34766 18.7305-0.0292969Q20.1074-1.40625 20.8887-3.20801Q21.6699-5.00977 21.6699-7.05078Q21.6699-9.0918 20.8887-10.8936Q20.1074-12.6953 18.7305-14.0723Q17.3535-15.4492 15.5469-16.2305Q13.7402-17.0117 11.6992-17.0117Q9.6582-17.0117 7.85645-16.2305Q6.05469-15.4492 4.68262-14.0723Q3.31055-12.6953 2.5293-10.8936Q1.74805-9.0918 1.74805-7.05078Q1.74805-5.00977 2.5293-3.20801Q3.31055-1.40625 4.6875-0.0292969Q6.06445 1.34766 7.86621 2.12891Q9.66797 2.91016 11.709 2.91016ZM11.709 1.25Q9.98047 1.25 8.47656 0.605469Q6.97266-0.0390625 5.83496-1.17676Q4.69727-2.31445 4.05762-3.81836Q3.41797-5.32227 3.41797-7.05078Q3.41797-8.7793 4.05762-10.2832Q4.69727-11.7871 5.83008-12.9297Q6.96289-14.0723 8.4668-14.7119Q9.9707-15.3516 11.6992-15.3516Q13.4277-15.3516 14.9316-14.7119Q16.4355-14.0723 17.5781-12.9297Q18.7207-11.7871 19.3652-10.2832Q20.0098-8.7793 20.0098-7.05078Q20.0098-5.32227 19.3701-3.81836Q18.7305-2.31445 17.5928-1.17676Q16.4551-0.0390625 14.9463 0.605469Q13.4375 1.25 11.709 1.25ZM7.39258-7.04102Q7.39258-6.68945 7.62695-6.46484Q7.86133-6.24023 8.23242-6.24023L10.8789-6.24023L10.8789-3.57422Q10.8789-3.21289 11.1035-2.9834Q11.3281-2.75391 11.6797-2.75391Q12.0508-2.75391 12.2852-2.9834Q12.5195-3.21289 12.5195-3.57422L12.5195-6.24023L15.1758-6.24023Q15.5371-6.24023 15.7715-6.46484Q16.0059-6.68945 16.0059-7.04102Q16.0059-7.41211 15.7715-7.6416Q15.5371-7.87109 15.1758-7.87109L12.5195-7.87109L12.5195-10.5176Q12.5195-10.8984 12.2852-11.1279Q12.0508-11.3574 11.6797-11.3574Q11.3281-11.3574 11.1035-11.1279Q10.8789-10.8984 10.8789-10.5176L10.8789-7.87109L8.23242-7.87109Q7.85156-7.87109 7.62207-7.6416Q7.39258-7.41211 7.39258-7.04102Z"/>
  </g>
  <g transform="matrix(1 0 0 1 305.646 1933)">
   <path d="M14.9707 5.66406Q17.0605 5.66406 18.96 5.01465Q20.8594 4.36523 22.4512 3.19336Q24.043 2.02148 25.2197 0.429688Q26.3965-1.16211 27.0459-3.06641Q27.6953-4.9707 27.6953-7.05078Q27.6953-9.14062 27.0459-11.04Q26.3965-12.9395 25.2197-14.5312Q24.043-16.123 22.4512-17.2998Q20.8594-18.4766 18.9551-19.126Q17.0508-19.7754 14.9609-19.7754Q12.8711-19.7754 10.9717-19.126Q9.07227-18.4766 7.48535-17.2998Q5.89844-16.123 4.72168-14.5312Q3.54492-12.9395 2.90039-11.04Q2.25586-9.14062 2.25586-7.05078Q2.25586-4.9707 2.90527-3.06641Q3.55469-1.16211 4.72656 0.429688Q5.89844 2.02148 7.49023 3.19336Q9.08203 4.36523 10.9814 5.01465Q12.8809 5.66406 14.9707 5.66406ZM14.9707 3.84766Q13.1641 3.84766 11.5283 3.2959Q9.89258 2.74414 8.53516 1.74805Q7.17773 0.751953 6.17676-0.610352Q5.17578-1.97266 4.62891-3.6084Q4.08203-5.24414 4.08203-7.05078Q4.08203-8.86719 4.62891-10.5029Q5.17578-12.1387 6.17188-13.501Q7.16797-14.8633 8.52539-15.8594Q9.88281-16.8555 11.5186-17.4023Q13.1543-17.9492 14.9609-17.9492Q16.7773-17.9492 18.4131-17.4023Q20.0488-16.8555 21.4111-15.8594Q22.7734-14.8633 23.7695-13.501Q24.7656-12.1387 25.3174-10.5029Q25.8691-8.86719 25.8691-7.05078Q25.8789-5.24414 25.332-3.6084Q24.7852-1.97266 23.7842-0.610352Q22.7832 0.751953 21.4209 1.74805Q20.0586 2.74414 18.4229 3.2959Q16.7871 3.84766 14.9707 3.84766ZM9.45312-7.04102Q9.45312-6.66016 9.71191-6.41113Q9.9707-6.16211 10.3711-6.16211L14.0625-6.16211L14.0625-2.46094Q14.0625-2.06055 14.3115-1.80664Q14.5605-1.55273 14.9414-1.55273Q15.3516-1.55273 15.6055-1.80664Q15.8594-2.06055 15.8594-2.46094L15.8594-6.16211L19.5605-6.16211Q19.9609-6.16211 20.2148-6.41113Q20.4688-6.66016 20.4688-7.04102Q20.4688-7.45117 20.2148-7.70508Q19.9609-7.95898 19.5605-7.95898L15.8594-7.95898L15.8594-11.6504Q15.8594-12.0605 15.6055-12.3145Q15.3516-12.5684 14.9414-12.5684Q14.5605-12.5684 14.3115-12.3096Q14.0625-12.0508 14.0625-11.6504L14.0625-7.95898L10.3711-7.95898Q9.96094-7.95898 9.70703-7.70508Q9.45312-7.45117 9.45312-7.04102Z"/>
  </g>
  <text style="stroke:none;fill:black;font-family:sans-serif;font-size:13;font-weight:bold;" transform="matrix(1 0 0 1 263 1953)">Design Variations</text>
  <text style="stroke:none;fill:black;font-family:sans-serif;font-size:13;" transform="matrix(1 0 0 1 263 1971)">Symbols are supported in up to nine weights and three scales.</text>
  <text style="stroke:none;fill:black;font-family:sans-serif;font-size:13;" transform="matrix(1 0 0 1 263 1989)">For optimal layout with text and other symbols, vertically align</text>
  <text style="stroke:none;fill:black;font-family:sans-serif;font-size:13;" transform="matrix(1 0 0 1 263 2007)">symbols with the adjacent text.</text>
  <line style="fill:none;stroke:#00AEEF;stroke-width:0.5;opacity:1.0;" x1="776" x2="776" y1="1919" y2="1933"/>
  <g transform="matrix(1 0 0 1 776 1933)">
   <path d="M3.31055 0.15625Q3.70117 0.15625 3.91602-0.00976562Q4.13086-0.175781 4.26758-0.585938L5.52734-4.0332L11.2891-4.0332L12.5488-0.585938Q12.6855-0.175781 12.9004-0.00976562Q13.1152 0.15625 13.4961 0.15625Q13.8867 0.15625 14.1162-0.0585938Q14.3457-0.273438 14.3457-0.644531Q14.3457-0.869141 14.2383-1.17188L9.6582-13.3691Q9.48242-13.8184 9.17969-14.043Q8.87695-14.2676 8.4082-14.2676Q7.5-14.2676 7.17773-13.3789L2.59766-1.16211Q2.49023-0.859375 2.49023-0.634766Q2.49023-0.263672 2.70996-0.0537109Q2.92969 0.15625 3.31055 0.15625ZM6.00586-5.51758L8.37891-12.0898L8.42773-12.0898L10.8008-5.51758Z"/>
  </g>
  <line style="fill:none;stroke:#00AEEF;stroke-width:0.5;opacity:1.0;" x1="793.197" x2="793.197" y1="1919" y2="1933"/>
  <text style="stroke:none;fill:black;font-family:sans-serif;font-size:13;font-weight:bold;" transform="matrix(1 0 0 1 776 1953)">Margins</text>
  <text style="stroke:none;fill:black;font-family:sans-serif;font-size:13;" transform="matrix(1 0 0 1 776 1971)">Leading and trailing margins on the left and right side of each symbol</text>
  <text style="stroke:none;fill:black;font-family:sans-serif;font-size:13;" transform="matrix(1 0 0 1 776 1989)">can be adjusted by modifying the x-location of the margin guidelines.</text>
  <text style="stroke:none;fill:black;font-family:sans-serif;font-size:13;" transform="matrix(1 0 0 1 776 2007)">Modifications are automatically applied proportionally to all</text>
  <text style="stroke:none;fill:black;font-family:sans-serif;font-size:13;" transform="matrix(1 0 0 1 776 2025)">scales and weights.</text>
  <g transform="matrix(1 0 0 1 1289 1933)">
   <path d="M2.8418 1.86523L4.54102 3.57422Q5.18555 4.22852 5.90332 4.17969Q6.62109 4.13086 7.31445 3.35938L18.0078-8.42773L17.041-9.4043L6.42578 2.27539Q6.16211 2.57812 5.89355 2.61719Q5.625 2.65625 5.27344 2.30469L4.10156 1.14258Q3.75 0.791016 3.79395 0.522461Q3.83789 0.253906 4.14062-0.0195312L15.6152-10.8203L14.6387-11.7871L3.04688-0.898438Q2.30469-0.214844 2.25098 0.498047Q2.19727 1.21094 2.8418 1.86523ZM9.25781-16.3281Q8.94531-16.0254 8.90625-15.6348Q8.86719-15.2441 9.04297-14.9512Q9.21875-14.6777 9.55566-14.541Q9.89258-14.4043 10.3809-14.5215Q11.4746-14.7754 12.5977-14.7314Q13.7207-14.6875 14.7949-13.9844L14.209-12.5293Q13.9551-11.9043 14.0674-11.4404Q14.1797-10.9766 14.5801-10.5664L16.875-8.25195Q17.2363-7.88086 17.5781-7.82227Q17.9199-7.76367 18.3398-7.8418L19.4043-8.03711L20.0684-7.36328L20.0293-6.80664Q20-6.43555 20.1221-6.12305Q20.2441-5.81055 20.6055-5.44922L21.3672-4.70703Q21.7285-4.3457 22.1533-4.33105Q22.5781-4.31641 22.9297-4.66797L25.8398-7.58789Q26.1914-7.93945 26.1816-8.35449Q26.1719-8.76953 25.8105-9.13086L25.0391-9.89258Q24.6875-10.2539 24.3799-10.3857Q24.0723-10.5176 23.7109-10.4883L23.1348-10.4395L22.4902-11.0742L22.7344-12.1973Q22.832-12.6172 22.6953-12.9834Q22.5586-13.3496 22.1191-13.7891L19.9219-15.9766Q18.6719-17.2168 17.2607-17.8369Q15.8496-18.457 14.4189-18.4814Q12.9883-18.5059 11.665-17.959Q10.3418-17.4121 9.25781-16.3281ZM10.752-15.957Q11.6602-16.6211 12.7002-16.9043Q13.7402-17.1875 14.8047-17.085Q15.8691-16.9824 16.8701-16.5137Q17.8711-16.0449 18.7012-15.2051L21.1328-12.793Q21.3086-12.6172 21.3525-12.4512Q21.3965-12.2852 21.3379-12.0312L21.0156-10.5469L22.5195-9.0625L23.5059-9.12109Q23.6914-9.13086 23.7891-9.09668Q23.8867-9.0625 24.0332-8.91602L24.6094-8.33984L22.168-5.89844L21.5918-6.47461Q21.4453-6.62109 21.4062-6.71875Q21.3672-6.81641 21.377-7.01172L21.4453-7.98828L19.9512-9.47266L18.4277-9.21875Q18.1836-9.16992 18.042-9.2041Q17.9004-9.23828 17.7148-9.41406L15.7129-11.416Q15.5176-11.5918 15.4932-11.7529Q15.4688-11.9141 15.5859-12.1875L16.4648-14.2773Q15.293-15.3711 13.8281-15.791Q12.3633-16.2109 10.8398-15.7617Q10.7227-15.7324 10.6885-15.8057Q10.6543-15.8789 10.752-15.957Z"/>
  </g>
  <text style="stroke:none;fill:black;font-family:sans-serif;font-size:13;font-weight:bold;" transform="matrix(1 0 0 1 1289 1953)">Exporting</text>
  <text style="stroke:none;fill:black;font-family:sans-serif;font-size:13;" transform="matrix(1 0 0 1 1289 1971)">Symbols should be outlined when exporting to ensure the</text>
  <text style="stroke:none;fill:black;font-family:sans-serif;font-size:13;" transform="matrix(1 0 0 1 1289 1989)">design is preserved when submitting to Xcode.</text>
  <text id="template-version" style="stroke:none;fill:black;font-family:sans-serif;font-size:13;text-anchor:end;" transform="matrix(1 0 0 1 3036 1933)">Template v.2.0</text>
  <text style="stroke:none;fill:black;font-family:sans-serif;font-size:13;text-anchor:end;" transform="matrix(1 0 0 1 3036 1951)">Requires Xcode 13 or greater</text>
  <text id="descriptive-name" style="stroke:none;fill:black;font-family:sans-serif;font-size:13;text-anchor:end;" transform="matrix(1 0 0 1 3036 1969)">Generated from heart.slash</text>
  <text style="stroke:none;fill:black;font-family:sans-serif;font-size:13;text-anchor:end;" transform="matrix(1 0 0 1 3036 1987)">Typeset at 100 points</text>
  <text style="stroke:none;fill:black;font-family:sans-serif;font-size:13;" transform="matrix(1 0 0 1 263 726)">Small</text>
  <text style="stroke:none;fill:black;font-family:sans-serif;font-size:13;" transform="matrix(1 0 0 1 263 1156)">Medium</text>
  <text style="stroke:none;fill:black;font-family:sans-serif;font-size:13;" transform="matrix(1 0 0 1 263 1586)">Large</text>
 </g>
 <g id="Guides">
  <g id="H-reference" style="fill:#27AAE1;stroke:none;" transform="matrix(1 0 0 1 339 696)">
   <path d="M0.976562 0L3.66211 0L29.3457-67.1387L30.0293-67.1387L30.0293-70.459L28.125-70.459ZM11.6699-24.4629L46.9727-24.4629L46.2402-26.709L12.4512-26.709ZM55.127 0L57.7637 0L30.6152-70.459L29.4434-70.459L29.4434-67.1387Z"/>
  </g>
  <line id="Baseline-S" style="fill:none;stroke:#27AAE1;opacity:1;stroke-width:0.5;" x1="263" x2="3036" y1="696" y2="696"/>
  <line id="Capline-S" style="fill:none;stroke:#27AAE1;opacity:1;stroke-width:0.5;" x1="263" x2="3036" y1="625.541" y2="625.541"/>
  <g id="H-reference" style="fill:#27AAE1;stroke:none;" transform="matrix(1 0 0 1 339 1126)">
   <path d="M0.976562 0L3.66211 0L29.3457-67.1387L30.0293-67.1387L30.0293-70.459L28.125-70.459ZM11.6699-24.4629L46.9727-24.4629L46.2402-26.709L12.4512-26.709ZM55.127 0L57.7637 0L30.6152-70.459L29.4434-70.459L29.4434-67.1387Z"/>
  </g>
  <line id="Baseline-M" style="fill:none;stroke:#27AAE1;opacity:1;stroke-width:0.5;" x1="263" x2="3036" y1="1126" y2="1126"/>
  <line id="Capline-M" style="fill:none;stroke:#27AAE1;opacity:1;stroke-width:0.5;" x1="263" x2="3036" y1="1055.54" y2="1055.54"/>
  <g id="H-reference" style="fill:#27AAE1;stroke:none;" transform="matrix(1 0 0 1 339 1556)">
   <path d="M0.976562 0L3.66211 0L29.3457-67.1387L30.0293-67.1387L30.0293-70.459L28.125-70.459ZM11.6699-24.4629L46.9727-24.4629L46.2402-26.709L12.4512-26.709ZM55.127 0L57.7637 0L30.6152-70.459L29.4434-70.459L29.4434-67.1387Z"/>
  </g>
  <line id="Baseline-L" style="fill:none;stroke:#27AAE1;opacity:1;stroke-width:0.5;" x1="263" x2="3036" y1="1556" y2="1556"/>
  <line id="Capline-L" style="fill:none;stroke:#27AAE1;opacity:1;stroke-width:0.5;" x1="263" x2="3036" y1="1485.54" y2="1485.54"/>
  <line id="left-margin" style="fill:none;stroke:#00AEEF;stroke-width:0.5;opacity:1.0;" x1="1389.3" x2="1389.3" y1="1030.79" y2="1150.12"/>
  <line id="right-margin" style="fill:none;stroke:#00AEEF;stroke-width:0.5;opacity:1.0;" x1="1510.39" x2="1510.39" y1="1030.79" y2="1150.12"/>
 </g>
 <g id="Symbols">
  <g id="Black-L" transform="matrix(1 0 0 1 2851.56 1556)">
   <path d="M106.396 14.5508L91.4551-0.341797Q89.3555 1.26953 87.1582 2.85645Q84.9609 4.44336 82.7148 5.95703Q82.1289 6.34766 81.8359 6.34766Q81.5918 6.34766 81.0059 5.95703Q70.9473-0.732422 62.6953-8.1543Q54.4434-15.5762 48.4863-23.2422Q42.5293-30.9082 39.3311-38.4277Q36.1328-45.9473 36.1328-52.832Q36.1328-53.5156 36.2061-54.1748Q36.2793-54.834 36.4258-55.4199L18.7012-73.1445Q16.6504-68.7012 15.5029-63.5254Q14.3555-58.3496 14.3555-52.5879Q14.3555-42.3828 18.4326-32.2266Q22.5098-22.0703 30.0537-12.2314Q37.5977-2.39258 48.1201 6.90918Q58.6426 16.2109 71.5332 24.707Q74.3652 26.6113 77.124 28.1006Q79.8828 29.5898 81.8359 29.5898Q83.8379 29.5898 86.5967 28.1006Q89.3555 26.6113 92.1875 24.707Q95.8984 22.2656 99.4873 19.7021Q103.076 17.1387 106.396 14.5508ZM113.428-20.9473L128.467-5.9082Q138.379-17.1387 143.872-28.9307Q149.365-40.7227 149.365-52.5879Q149.365-62.4512 146.191-70.459Q143.018-78.4668 137.476-84.2285Q131.934-89.9902 124.756-93.0664Q117.578-96.1426 109.57-96.1426Q103.027-96.1426 97.7783-94.4824Q92.5293-92.8223 88.5742-89.917Q84.6191-87.0117 81.8359-83.252Q79.1504-87.0117 75.1709-89.917Q71.1914-92.8223 65.9424-94.4824Q60.6934-96.1426 54.1504-96.1426Q47.168-96.1426 40.625-93.7012L59.1309-75.1953Q59.4238-75.1953 59.8145-75.1953Q63.7695-75.1953 66.8213-73.6084Q69.873-72.0215 72.1436-69.6777Q74.4141-67.334 76.0742-65.0879Q77.4902-63.1348 78.833-62.1582Q80.1758-61.1816 81.8359-61.1816Q83.4961-61.1816 84.79-62.1582Q86.084-63.1348 87.5977-65.0879Q89.5508-67.5781 91.9922-69.9219Q94.4336-72.2656 97.8516-73.8037Q101.27-75.3418 106.152-75.3418Q112.256-75.3418 117.114-72.4854Q121.973-69.6289 124.78-64.5508Q127.588-59.4727 127.588-52.832Q127.588-45.4102 123.877-37.2803Q120.166-29.1504 113.428-20.9473ZM130.957 25.9277Q132.666 27.5879 135.059 27.5879Q137.451 27.5879 139.062 25.9277Q140.723 24.2188 140.747 21.8506Q140.771 19.4824 139.062 17.7734L19.4824-101.709Q17.8223-103.369 15.4053-103.369Q12.9883-103.369 11.2793-101.709Q9.66797-100.049 9.66797-97.6318Q9.66797-95.2148 11.2793-93.5547Z"/>
  </g>
  <g id="Heavy-L" transform="matrix(1 0 0 1 2556 1556)">
   <path d="M105.078 12.9395L92.1875 0.0976562Q89.6484 2.09961 86.9873 4.02832Q84.3262 5.95703 81.6406 7.8125Q80.957 8.25195 80.6641 8.25195Q80.4199 8.25195 79.7852 7.8125Q69.6777 1.07422 61.1572-6.46973Q52.6367-14.0137 46.3623-21.9238Q40.0879-29.834 36.6455-37.6953Q33.2031-45.5566 33.2031-52.8809Q33.2031-54.2969 33.4473-55.5664Q33.6914-56.8359 34.1797-57.959L19.043-73.0469Q16.8945-68.7012 15.7227-63.5742Q14.5508-58.4473 14.5508-52.7344Q14.5508-42.5781 18.6279-32.4951Q22.7051-22.4121 30.249-12.6709Q37.793-2.92969 48.3398 6.32324Q58.8867 15.5762 71.8262 24.0234Q74.2188 25.6348 76.6113 26.8799Q79.0039 28.125 80.6641 28.125Q82.4219 28.125 84.8145 26.8799Q87.207 25.6348 89.5508 24.0234Q93.6523 21.3867 97.5586 18.5791Q101.465 15.7715 105.078 12.9395ZM112.842-19.2871L125.83-6.29883Q135.791-17.4805 141.333-29.1992Q146.875-40.918 146.875-52.7344Q146.875-62.1582 143.823-69.8975Q140.771-77.6367 135.425-83.2275Q130.078-88.8184 123.071-91.7969Q116.064-94.7754 108.203-94.7754Q101.807-94.7754 96.6064-93.0908Q91.4062-91.4062 87.4268-88.4033Q83.4473-85.4004 80.6641-81.4941Q77.9785-85.4004 73.9746-88.4033Q69.9707-91.4062 64.7705-93.0908Q59.5703-94.7754 53.2227-94.7754Q46.2402-94.7754 39.7949-92.334L55.6152-76.5137Q56.4453-76.7578 57.5195-76.7578Q61.9141-76.7578 65.2832-75.0488Q68.6523-73.3398 71.1426-70.7764Q73.6328-68.2129 75.3906-65.6738Q76.709-63.7695 77.9297-62.8906Q79.1504-62.0117 80.6641-62.0117Q82.1777-62.0117 83.3496-62.915Q84.5215-63.8184 85.9863-65.6738Q87.9883-68.4082 90.6006-70.9473Q93.2129-73.4863 96.8506-75.1709Q100.488-76.8555 105.615-76.8555Q112.061-76.8555 117.163-73.8281Q122.266-70.8008 125.22-65.4053Q128.174-60.0098 128.174-52.8809Q128.174-44.9219 124.097-36.3525Q120.02-27.7832 112.842-19.2871ZM129.297 24.707Q130.908 26.2695 133.154 26.2695Q135.4 26.2695 136.914 24.707Q138.428 23.1445 138.452 20.9229Q138.477 18.7012 136.914 17.0898L18.8477-100.83Q17.2852-102.393 15.0391-102.393Q12.793-102.393 11.1816-100.83Q9.66797-99.3164 9.66797-97.0459Q9.66797-94.7754 11.1816-93.2129Z"/>
  </g>
  <g id="Bold-L" transform="matrix(1 0 0 1 2260.56 1556)">
   <path d="M103.564 11.1816L93.0176 0.634766Q90.0391 3.02734 86.8652 5.34668Q83.6914 7.66602 80.4199 9.86328Q79.6875 10.3516 79.3945 10.3516Q79.1504 10.3516 78.418 9.86328Q68.2617 3.07617 59.4727-4.61426Q50.6836-12.3047 44.043-20.4834Q37.4023-28.6621 33.6914-36.8896Q29.9805-45.1172 29.9805-52.9785Q29.9805-55.1758 30.4199-57.1533Q30.8594-59.1309 31.6406-60.791L19.4336-72.9492Q17.2363-68.6523 15.9912-63.5986Q14.7461-58.5449 14.7461-52.8809Q14.7461-42.7734 18.8232-32.8125Q22.9004-22.8516 30.4688-13.1836Q38.0371-3.51562 48.6084 5.66406Q59.1797 14.8438 72.2168 23.291Q74.0723 24.5605 76.0254 25.5371Q77.9785 26.5137 79.3945 26.5137Q80.8594 26.5137 82.8125 25.5371Q84.7656 24.5605 86.6699 23.291Q91.1621 20.3613 95.4102 17.3096Q99.6582 14.2578 103.564 11.1816ZM112.207-17.4316L122.9-6.73828Q132.959-17.8223 138.525-29.4678Q144.092-41.1133 144.092-52.8809Q144.092-61.8652 141.187-69.2871Q138.281-76.709 133.13-82.1045Q127.979-87.5 121.191-90.4053Q114.404-93.3105 106.641-93.3105Q100.488-93.3105 95.3369-91.5771Q90.1855-89.8438 86.1816-86.7432Q82.1777-83.6426 79.3945-79.541Q76.709-83.6426 72.6807-86.7188Q68.6523-89.7949 63.501-91.5527Q58.3496-93.3105 52.1973-93.3105Q45.2637-93.3105 38.8672-90.8203L51.709-78.0273Q53.1738-78.5156 54.9805-78.5156Q59.9121-78.5156 63.623-76.6602Q67.334-74.8047 70.0439-71.9971Q72.7539-69.1895 74.6582-66.3574Q75.8789-64.5508 76.9775-63.7451Q78.0762-62.9395 79.3945-62.9395Q80.7617-62.9395 81.7871-63.7451Q82.8125-64.5508 84.1797-66.3574Q86.2793-69.2871 89.0625-72.0947Q91.8457-74.9023 95.7275-76.7334Q99.6094-78.5645 104.98-78.5645Q111.816-78.5645 117.236-75.3418Q122.656-72.1191 125.757-66.3574Q128.857-60.5957 128.857-52.9785Q128.857-44.3848 124.39-35.3271Q119.922-26.2695 112.207-17.4316ZM127.49 23.3887Q128.955 24.8535 131.006 24.8535Q133.057 24.8535 134.473 23.3887Q135.889 21.9238 135.913 19.873Q135.938 17.8223 134.473 16.3574L18.1641-99.9023Q16.6992-101.318 14.624-101.343Q12.5488-101.367 11.084-99.9023Q9.66797-98.4863 9.66797-96.3867Q9.66797-94.2871 11.084-92.8711Z"/>
  </g>
  <g id="Semibold-L" transform="matrix(1 0 0 1 1964.75 1556)">
   <path d="M102.539 9.91211L93.5547 0.976562Q90.2344 3.66211 86.7188 6.25Q83.2031 8.83789 79.5898 11.2305Q78.7598 11.8164 78.5156 11.8164Q78.2715 11.8164 77.4414 11.2305Q67.2852 4.44336 58.2764-3.34473Q49.2676-11.1328 42.3828-19.4824Q35.498-27.832 31.5918-36.3281Q27.6855-44.8242 27.6855-53.0273Q27.6855-55.7617 28.2715-58.2031Q28.8574-60.6445 29.8828-62.6953L19.6777-72.9004Q17.4316-68.6523 16.1621-63.623Q14.8926-58.5938 14.8926-52.9785Q14.8926-42.9199 18.9697-33.0078Q23.0469-23.0957 30.6152-13.501Q38.1836-3.90625 48.7793 5.2002Q59.375 14.3066 72.4121 22.7539Q73.9258 23.7793 75.6104 24.585Q77.2949 25.3906 78.5156 25.3906Q79.7852 25.3906 81.4453 24.585Q83.1055 23.7793 84.6191 22.7539Q89.4043 19.6777 93.9209 16.4551Q98.4375 13.2324 102.539 9.91211ZM111.768-16.1621L120.898-7.03125Q130.957-18.0664 136.548-29.6387Q142.139-41.2109 142.139-52.9785Q142.139-61.6699 139.355-68.8721Q136.572-76.0742 131.567-81.3232Q126.562-86.5723 119.897-89.4043Q113.232-92.2363 105.566-92.2363Q99.5605-92.2363 94.458-90.4785Q89.3555-88.7207 85.3271-85.5469Q81.2988-82.373 78.5156-78.1738Q75.7812-82.373 71.7529-85.5225Q67.7246-88.6719 62.5977-90.4541Q57.4707-92.2363 51.4648-92.2363Q44.5312-92.2363 38.2324-89.7949L48.9746-79.0039Q50.8789-79.6875 53.1738-79.6875Q58.4961-79.6875 62.4512-77.7344Q66.4062-75.7812 69.2627-72.8271Q72.1191-69.873 74.1211-66.7969Q75.293-65.0391 76.2939-64.2822Q77.2949-63.5254 78.5156-63.5254Q79.7363-63.5254 80.6885-64.3066Q81.6406-65.0879 82.959-66.7969Q85.0586-69.9219 87.9883-72.876Q90.918-75.8301 94.9707-77.7832Q99.0234-79.7363 104.541-79.7363Q111.67-79.7363 117.261-76.3672Q122.852-72.998 126.074-66.9922Q129.297-60.9863 129.297-53.0273Q129.297-43.9941 124.536-34.5947Q119.775-25.1953 111.768-16.1621ZM126.172 22.4609Q127.588 23.8281 129.517 23.8281Q131.445 23.8281 132.812 22.4609Q134.131 21.0449 134.155 19.1406Q134.18 17.2363 132.812 15.8203L17.627-99.2188Q16.3086-100.586 14.3555-100.586Q12.4023-100.586 10.9863-99.2188Q9.66797-97.9004 9.66797-95.9229Q9.66797-93.9453 10.9863-92.627Z"/>
  </g>
  <g id="Medium-L" transform="matrix(1 0 0 1 1668.7 1556)">
   <path d="M101.758 8.98438L93.9941 1.26953Q90.4297 4.15039 86.6455 6.93359Q82.8613 9.7168 78.9551 12.3047Q78.0762 12.8906 77.832 12.8906Q77.5879 12.8906 76.709 12.3047Q66.5527 5.51758 57.3975-2.34375Q48.2422-10.2051 41.1621-18.7012Q34.082-27.1973 30.0537-35.8887Q26.0254-44.5801 26.0254-53.0762Q26.0254-56.25 26.6846-59.0576Q27.3438-61.8652 28.5156-64.209L19.9219-72.8027Q17.5781-68.6035 16.2842-63.623Q14.9902-58.6426 14.9902-53.0273Q14.9902-43.0176 19.0674-33.1543Q23.1445-23.291 30.7373-13.7695Q38.3301-4.24805 48.9258 4.83398Q59.5215 13.916 72.6074 22.3633Q73.8281 23.1934 75.293 23.877Q76.7578 24.5605 77.832 24.5605Q78.9551 24.5605 80.3955 23.877Q81.8359 23.1934 83.1055 22.3633Q88.0859 19.1406 92.7734 15.7715Q97.4609 12.4023 101.758 8.98438ZM111.426-15.1855L119.336-7.27539Q129.443-18.2617 135.059-29.7852Q140.674-41.3086 140.674-53.0273Q140.674-61.4746 137.964-68.5303Q135.254-75.5859 130.347-80.7373Q125.439-85.8887 118.896-88.6719Q112.354-91.4551 104.785-91.4551Q98.877-91.4551 93.7744-89.6729Q88.6719-87.8906 84.6436-84.668Q80.6152-81.4453 77.832-77.1484Q75.0977-81.4453 71.0693-84.6436Q67.041-87.8418 61.9141-89.6484Q56.7871-91.4551 50.9277-91.4551Q43.9941-91.4551 37.7441-88.9648L46.9238-79.7852Q49.1211-80.6152 51.8555-80.6152Q57.4219-80.6152 61.5723-78.5889Q65.7227-76.5625 68.6768-73.4619Q71.6309-70.3613 73.7305-67.1387Q74.8535-65.4297 75.7812-64.7217Q76.709-64.0137 77.832-64.0137Q78.9551-64.0137 79.834-64.7461Q80.7129-65.4785 81.9824-67.1387Q84.1309-70.3613 87.1582-73.4619Q90.1855-76.5625 94.3604-78.5889Q98.5352-80.6152 104.248-80.6152Q111.523-80.6152 117.285-77.1484Q123.047-73.6816 126.367-67.4805Q129.688-61.2793 129.688-53.0762Q129.688-43.7012 124.707-34.0332Q119.727-24.3652 111.426-15.1855ZM125.244 21.7773Q126.562 23.0469 128.394 23.0469Q130.225 23.0469 131.543 21.7773Q132.812 20.4102 132.837 18.5791Q132.861 16.748 131.543 15.4297L17.2852-98.6816Q15.9668-100 14.1113-100.024Q12.2559-100.049 10.9375-98.6816Q9.66797-97.4609 9.66797-95.5811Q9.66797-93.7012 10.9375-92.4316Z"/>
  </g>
  <g id="Regular-L" transform="matrix(1 0 0 1 1372.87 1556)">
   <path d="M100.732 7.76367L94.5312 1.61133Q90.6738 4.78516 86.5234 7.83691Q82.373 10.8887 78.125 13.7207Q77.1973 14.3555 76.9531 14.3555Q76.709 14.3555 75.7812 13.7207Q65.5762 6.88477 56.2256-1.07422Q46.875-9.0332 39.5508-17.7002Q32.2266-26.3672 28.0029-35.3271Q23.7793-44.2871 23.7793-53.125Q23.7793-56.8359 24.585-60.1074Q25.3906-63.3789 26.8066-66.1133L20.166-72.7539Q17.7734-68.6035 16.4551-63.6475Q15.1367-58.6914 15.1367-53.125Q15.1367-43.1641 19.2139-33.374Q23.291-23.584 30.8838-14.1113Q38.4766-4.63867 49.0967 4.39453Q59.7168 13.4277 72.8516 21.875Q73.7305 22.4609 74.9023 22.9492Q76.0742 23.4375 76.9531 23.4375Q77.8809 23.4375 79.0283 22.9492Q80.1758 22.4609 81.1035 21.875Q86.377 18.457 91.3086 14.917Q96.2402 11.377 100.732 7.76367ZM110.986-13.916L117.334-7.56836Q127.49-18.5059 133.13-29.9805Q138.77-41.4551 138.77-53.125Q138.77-61.2793 136.157-68.1152Q133.545-74.9512 128.784-79.9561Q124.023-84.9609 117.627-87.6953Q111.23-90.4297 103.711-90.4297Q97.9492-90.4297 92.8955-88.623Q87.8418-86.8164 83.7891-83.5205Q79.7363-80.2246 76.9531-75.8301Q74.2188-80.2246 70.166-83.4961Q66.1133-86.7676 61.0352-88.5986Q55.957-90.4297 50.1953-90.4297Q43.3105-90.4297 37.1094-87.9395L44.2383-80.8105Q46.875-81.7871 50.0977-81.7871Q56.0059-81.7871 60.4004-79.6631Q64.7949-77.5391 67.9199-74.292Q71.0449-71.0449 73.1934-67.5781Q74.2676-65.918 75.0977-65.2832Q75.9277-64.6484 76.9531-64.6484Q77.9785-64.6484 78.7598-65.3076Q79.541-65.9668 80.7617-67.5781Q82.959-70.9961 86.1084-74.2432Q89.2578-77.4902 93.6035-79.6387Q97.9492-81.7871 103.809-81.7871Q111.377-81.7871 117.334-78.1738Q123.291-74.5605 126.709-68.1152Q130.127-61.6699 130.127-53.125Q130.127-43.3105 124.878-33.3252Q119.629-23.3398 110.986-13.916ZM123.975 20.8496Q125.195 22.0703 126.929 22.0703Q128.662 22.0703 129.883 20.8496Q131.055 19.5801 131.079 17.8711Q131.104 16.1621 129.883 14.9414L16.7969-98.0469Q15.5762-99.2676 13.8428-99.292Q12.1094-99.3164 10.8398-98.0469Q9.66797-96.875 9.66797-95.1172Q9.66797-93.3594 10.8398-92.1875Z"/>
  </g>
  <g id="Light-L" transform="matrix(1 0 0 1 1077.72 1556)">
   <path d="M99.6094 5.51758L94.873 0.830078Q90.5762 4.39453 85.9131 7.8125Q81.25 11.2305 76.416 14.502Q75.6348 15.0391 75.3906 15.0391Q75.1465 15.0391 74.3652 14.502Q63.7207 7.32422 54.1016-0.78125Q44.4824-8.88672 37.085-17.5781Q29.6875-26.2695 25.4395-35.2539Q21.1914-44.2383 21.1914-53.125Q21.1914-57.6172 22.29-61.5479Q23.3887-65.4785 25.3418-68.7012L20.3613-73.6816Q17.627-69.4336 16.1133-64.2334Q14.5996-59.0332 14.5996-53.125Q14.5996-43.3594 18.7256-33.7402Q22.8516-24.1211 30.4443-14.8193Q38.0371-5.51758 48.5596 3.36914Q59.082 12.2559 71.875 20.6055Q72.6562 21.1426 73.6328 21.5332Q74.6094 21.9238 75.3906 21.9238Q76.2207 21.9238 77.1729 21.5332Q78.125 21.1426 78.9062 20.6055Q84.5215 16.9922 89.7217 13.1836Q94.9219 9.375 99.6094 5.51758ZM109.131-12.5488L114.014-7.71484Q124.414-18.6035 130.298-30.0537Q136.182-41.5039 136.182-53.125Q136.182-61.0352 133.643-67.6758Q131.104-74.3164 126.465-79.1992Q121.826-84.082 115.601-86.7432Q109.375-89.4043 102.051-89.4043Q96.3867-89.4043 91.3086-87.5244Q86.2305-85.6445 82.1289-82.2021Q78.0273-78.7598 75.3906-74.1211Q72.8027-78.7598 68.7012-82.1777Q64.5996-85.5957 59.4971-87.5Q54.3945-89.4043 48.7305-89.4043Q41.5039-89.4043 35.1562-86.6699L40.5273-81.2988Q44.2383-82.8125 48.6816-82.8125Q54.541-82.8125 59.0088-80.6885Q63.4766-78.5645 66.7725-75.1709Q70.0684-71.7773 72.2656-67.9199Q73.1445-66.5527 73.8281-65.9912Q74.5117-65.4297 75.3906-65.4297Q76.2695-65.4297 76.9287-65.9912Q77.5879-66.5527 78.5156-67.9199Q80.8105-71.7285 84.1064-75.1221Q87.4023-78.5156 91.8457-80.6641Q96.2891-82.8125 102.1-82.8125Q110.01-82.8125 116.235-79.0527Q122.461-75.293 126.025-68.6035Q129.59-61.9141 129.59-53.125Q129.59-42.9688 123.999-32.6416Q118.408-22.3145 109.131-12.5488ZM122.852 19.4824Q123.779 20.459 125.122 20.459Q126.465 20.459 127.441 19.4824Q128.369 18.5059 128.369 17.1875Q128.369 15.8691 127.441 14.9414L15.1855-97.2656Q14.2578-98.1934 12.915-98.2422Q11.5723-98.291 10.5469-97.2656Q9.66797-96.3379 9.66797-94.9951Q9.66797-93.6523 10.5469-92.7246Z"/>
  </g>
  <g id="Thin-L" transform="matrix(1 0 0 1 783.107 1556)">
   <path d="M98.1445 2.58789L95.3613-0.244141Q90.4297 3.85742 85.1074 7.78809Q79.7852 11.7188 74.1211 15.5273Q73.584 15.918 73.3398 15.918Q73.0957 15.918 72.5586 15.5273Q61.2305 7.95898 51.2939-0.341797Q41.3574-8.64258 33.8135-17.4072Q26.2695-26.1719 22.0459-35.1562Q17.8223-44.1406 17.8223-53.125Q17.8223-58.6914 19.3115-63.4766Q20.8008-68.2617 23.4375-72.0703L20.6055-74.9023Q17.4316-70.5566 15.6494-65.0391Q13.8672-59.5215 13.8672-53.125Q13.8672-43.6035 18.042-34.2529Q22.2168-24.9023 29.834-15.7959Q37.4512-6.68945 47.8271 2.02637Q58.2031 10.7422 70.6543 18.9453Q71.1914 19.3848 71.9482 19.6777Q72.7051 19.9707 73.3398 19.9707Q73.9746 19.9707 74.7314 19.6777Q75.4883 19.3848 76.0254 18.9453Q82.0312 14.9902 87.5977 10.8887Q93.1641 6.78711 98.1445 2.58789ZM106.738-10.7422L109.619-7.86133Q120.361-18.75 126.587-30.127Q132.812-41.5039 132.812-53.125Q132.812-60.7422 130.347-67.1143Q127.881-73.4863 123.413-78.1982Q118.945-82.9102 112.915-85.498Q106.885-88.0859 99.8535-88.0859Q94.3848-88.0859 89.2334-86.084Q84.082-84.082 79.9316-80.4199Q75.7812-76.7578 73.3398-71.8262Q70.8984-76.7578 66.748-80.4199Q62.5977-84.082 57.4463-86.084Q52.2949-88.0859 46.8262-88.0859Q39.1113-88.0859 32.6172-84.9609L35.6445-81.8848Q40.7227-84.1309 46.8262-84.1309Q52.5391-84.1309 57.1533-82.0068Q61.7676-79.8828 65.2344-76.3184Q68.7012-72.7539 71.0938-68.3594Q71.6797-67.3828 72.168-66.9434Q72.6562-66.5039 73.3398-66.5039Q74.0234-66.5039 74.5117-66.9434Q75-67.3828 75.5859-68.3594Q77.9785-72.7051 81.4453-76.2939Q84.9121-79.8828 89.5264-82.0068Q94.1406-84.1309 99.8535-84.1309Q108.203-84.1309 114.771-80.1758Q121.338-76.2207 125.098-69.2383Q128.857-62.2559 128.857-53.125Q128.857-42.4805 122.827-31.7383Q116.797-20.9961 106.738-10.7422ZM121.387 17.7246Q121.973 18.3105 122.778 18.3105Q123.584 18.3105 124.17 17.7246Q124.854 17.0898 124.805 16.2842Q124.756 15.4785 124.17 14.8926L12.9883-96.2402Q12.5-96.7773 11.6699-96.8262Q10.8398-96.875 10.2051-96.2402Q9.61914-95.7031 9.61914-94.873Q9.61914-94.043 10.2051-93.457Z"/>
  </g>
  <g id="Ultralight-L" transform="matrix(1 0 0 1 487.445 1556)">
   <path d="M97.4121 1.07422L95.5566-0.78125Q90.332 3.56445 84.668 7.76367Q79.0039 11.9629 72.9492 16.0156Q72.5098 16.3574 72.2656 16.3574Q72.0215 16.3574 71.582 16.0156Q59.9609 8.25195 49.8535-0.146484Q39.7461-8.54492 32.1533-17.334Q24.5605-26.123 20.3125-35.1074Q16.0645-44.0918 16.0645-53.125Q16.0645-59.2285 17.749-64.4531Q19.4336-69.6777 22.4609-73.8281L20.752-75.5371Q17.334-71.0938 15.4297-65.4053Q13.5254-59.7168 13.5254-53.125Q13.5254-43.75 17.7246-34.4971Q21.9238-25.2441 29.541-16.2842Q37.1582-7.32422 47.4609 1.29395Q57.7637 9.91211 69.9707 18.1152Q70.459 18.457 71.0938 18.7012Q71.7285 18.9453 72.2656 18.9453Q72.8516 18.9453 73.4619 18.7012Q74.0723 18.457 74.5605 18.1152Q80.7617 14.0137 86.499 9.7168Q92.2363 5.41992 97.4121 1.07422ZM105.469-9.81445L107.324-7.95898Q118.262-18.8477 124.658-30.2002Q131.055-41.5527 131.055-53.125Q131.055-60.5957 128.638-66.8457Q126.221-73.0957 121.851-77.71Q117.48-82.3242 111.572-84.8633Q105.664-87.4023 98.7305-87.4023Q93.3105-87.4023 88.1348-85.3271Q82.959-83.252 78.8086-79.5166Q74.6582-75.7812 72.2656-70.6543Q69.9219-75.7812 65.7471-79.5166Q61.5723-83.252 56.3965-85.3271Q51.2207-87.4023 45.8496-87.4023Q37.8906-87.4023 31.2988-84.082L33.1055-82.2266Q38.916-84.8145 45.8984-84.8145Q51.5625-84.8145 56.2256-82.6904Q60.8887-80.5664 64.4775-76.9043Q68.0664-73.2422 70.459-68.5547Q70.8984-67.7734 71.3135-67.4072Q71.7285-67.041 72.2656-67.041Q72.8516-67.041 73.2666-67.4072Q73.6816-67.7734 74.0723-68.5547Q76.5137-73.2422 80.1025-76.9043Q83.6914-80.5664 88.3545-82.6904Q93.0176-84.8145 98.6816-84.8145Q107.275-84.8145 114.014-80.7617Q120.752-76.709 124.634-69.5557Q128.516-62.4023 128.516-53.125Q128.516-42.2363 122.266-31.2744Q116.016-20.3125 105.469-9.81445ZM120.654 16.7969Q120.996 17.1875 121.558 17.1875Q122.119 17.1875 122.51 16.7969Q122.998 16.3574 122.974 15.8203Q122.949 15.2832 122.51 14.8926L11.9141-95.752Q11.5723-96.0449 11.0352-96.1182Q10.498-96.1914 10.0098-95.752Q9.61914-95.3125 9.61914-94.7754Q9.61914-94.2383 10.0098-93.7988Z"/>
  </g>
  <g id="Black-M" transform="matrix(1 0 0 1 2869.53 1126)">
   <path d="M83.1543 4.00391L70.3125-8.83789Q68.9453-7.76367 67.4561-6.71387Q65.9668-5.66406 64.4043-4.63867Q64.0625-4.39453 63.8672-4.39453Q63.623-4.39453 63.3301-4.63867Q55.3711-9.91211 49.1211-15.5762Q42.8711-21.2402 38.501-27.002Q34.1309-32.7637 31.8359-38.3057Q29.541-43.8477 29.541-48.8281Q29.541-49.0234 29.5654-49.2188Q29.5898-49.4141 29.6387-49.6094L14.2578-64.9902Q12.5977-61.4258 11.6699-57.2998Q10.7422-53.1738 10.7422-48.584Q10.7422-38.0371 16.2842-27.5635Q21.8262-17.0898 31.7627-7.25098Q41.6992 2.58789 54.7852 11.377Q57.3242 13.0859 59.7412 14.4287Q62.1582 15.7715 63.8672 15.7715Q65.5762 15.7715 67.9688 14.4287Q70.3613 13.0859 72.9492 11.377Q78.3691 7.71484 83.1543 4.00391ZM87.7441-25.0977L100.635-12.207Q108.35-20.9473 112.671-30.1514Q116.992-39.3555 116.992-48.584Q116.992-56.4941 114.429-62.8906Q111.865-69.2871 107.471-73.8281Q103.076-78.3691 97.4121-80.8105Q91.748-83.252 85.498-83.252Q77.6855-83.252 72.3389-80.4443Q66.9922-77.6367 63.8672-73.3887Q60.7422-77.6367 55.3711-80.4443Q50-83.252 42.2363-83.252Q36.6699-83.252 31.4941-81.25L47.5098-65.2344Q47.6562-65.2344 47.8027-65.2344Q50.4883-65.2344 52.5879-64.0869Q54.6875-62.9395 56.3232-61.2793Q57.959-59.6191 59.1797-58.0078Q60.3027-56.4941 61.4014-55.6885Q62.5-54.8828 63.8672-54.8828Q65.2344-54.8828 66.2842-55.6885Q67.334-56.4941 68.457-58.0078Q69.9707-59.8633 71.7529-61.5479Q73.5352-63.2324 76.0254-64.2822Q78.5156-65.332 82.1289-65.332Q86.6699-65.332 90.2832-63.2324Q93.8965-61.1328 96.0205-57.3975Q98.1445-53.6621 98.1445-48.8281Q98.1445-43.4082 95.459-37.3779Q92.7734-31.3477 87.7441-25.0977ZM102.539 12.7441Q103.857 14.0137 105.713 14.0137Q107.568 14.0137 108.838 12.7441Q110.107 11.4258 110.132 9.59473Q110.156 7.76367 108.838 6.44531L15.1367-87.207Q13.8184-88.5254 11.9629-88.5254Q10.1074-88.5254 8.78906-87.207Q7.51953-85.9375 7.51953-84.0576Q7.51953-82.1777 8.78906-80.9082Z"/>
  </g>
  <g id="Heavy-M" transform="matrix(1 0 0 1 2573.6 1126)">
   <path d="M82.1289 2.92969L70.9473-8.20312Q69.2871-6.88477 67.4561-5.56641Q65.625-4.24805 63.7207-3.02734Q63.2812-2.68555 63.0859-2.68555Q62.8418-2.68555 62.4512-3.02734Q54.541-8.25195 48.0957-14.0137Q41.6504-19.7754 36.9873-25.7568Q32.3242-31.7383 29.8096-37.5977Q27.2949-43.457 27.2949-48.877Q27.2949-49.6094 27.417-50.2686Q27.5391-50.9277 27.7344-51.5137L14.5508-64.6973Q12.8906-61.2305 11.9629-57.2021Q11.0352-53.1738 11.0352-48.6816Q11.0352-38.1836 16.5771-27.7832Q22.1191-17.3828 32.1045-7.59277Q42.0898 2.19727 55.3223 10.9863Q57.4219 12.4023 59.5215 13.5254Q61.6211 14.6484 63.0859 14.6484Q64.5508 14.6484 66.626 13.5254Q68.7012 12.4023 70.8496 10.9863Q76.9043 6.98242 82.1289 2.92969ZM87.5977-23.7793L98.7793-12.5488Q106.494-21.2402 110.815-30.3711Q115.137-39.502 115.137-48.6816Q115.137-56.2988 112.671-62.4512Q110.205-68.6035 105.981-72.998Q101.758-77.3926 96.2402-79.7607Q90.7227-82.1289 84.5215-82.1289Q76.9531-82.1289 71.6064-79.2969Q66.2598-76.4648 63.0859-72.0215Q59.9121-76.4648 54.541-79.2969Q49.1699-82.1289 41.6504-82.1289Q36.1816-82.1289 31.1035-80.2246L44.873-66.4062Q45.3613-66.5039 45.8984-66.5039Q49.0234-66.5039 51.416-65.2588Q53.8086-64.0137 55.6152-62.1582Q57.4219-60.3027 58.7402-58.4961Q59.8145-56.9824 60.8154-56.25Q61.8164-55.5176 63.0859-55.5176Q64.3555-55.5176 65.3076-56.2744Q66.2598-57.0312 67.3828-58.4961Q68.9453-60.498 70.8496-62.3535Q72.7539-64.209 75.4395-65.4053Q78.125-66.6016 81.9824-66.6016Q86.7676-66.6016 90.5762-64.3555Q94.3848-62.1094 96.6309-58.1055Q98.877-54.1016 98.877-48.877Q98.877-43.0176 95.8984-36.6211Q92.9199-30.2246 87.5977-23.7793ZM101.172 11.8652Q102.441 13.0859 104.224 13.0859Q106.006 13.0859 107.227 11.8652Q108.447 10.5957 108.472 8.83789Q108.496 7.08008 107.227 5.81055L14.8438-86.5234Q13.5742-87.793 11.792-87.793Q10.0098-87.793 8.74023-86.5234Q7.51953-85.3027 7.51953-83.4961Q7.51953-81.6895 8.74023-80.4688Z"/>
  </g>
  <g id="Bold-M" transform="matrix(1 0 0 1 2277.77 1126)">
   <path d="M80.957 1.70898L71.7285-7.56836Q69.6777-5.9082 67.4561-4.29688Q65.2344-2.68555 62.9883-1.2207Q62.4023-0.78125 62.207-0.78125Q62.0117-0.78125 61.4746-1.2207Q53.6621-6.39648 46.9727-12.2559Q40.2832-18.1152 35.3027-24.3408Q30.3223-30.5664 27.5391-36.8164Q24.7559-43.0664 24.7559-48.9746Q24.7559-50.293 24.9756-51.4648Q25.1953-52.6367 25.6348-53.6621L14.8926-64.4043Q13.2324-61.0352 12.3291-57.1289Q11.4258-53.2227 11.4258-48.8281Q11.4258-38.3789 16.9434-28.0518Q22.4609-17.7246 32.4707-7.95898Q42.4805 1.80664 55.9082 10.5957Q57.5684 11.6699 59.2773 12.5488Q60.9863 13.4277 62.207 13.4277Q63.4766 13.4277 65.1611 12.5488Q66.8457 11.6699 68.5547 10.5957Q75.2441 6.15234 80.957 1.70898ZM87.4512-22.3145L96.7773-12.9883Q104.492-21.582 108.765-30.6396Q113.037-39.6973 113.037-48.8281Q113.037-56.0547 110.718-61.9385Q108.398-67.8223 104.321-72.0703Q100.244-76.3184 94.8975-78.6133Q89.5508-80.9082 83.4473-80.9082Q76.123-80.9082 70.7764-78.0273Q65.4297-75.1465 62.207-70.5566Q59.0332-75.1465 53.6621-78.0273Q48.291-80.9082 41.0156-80.9082Q35.6445-80.9082 30.7129-79.0527L41.9922-67.7734Q42.7734-67.9688 43.75-67.9688Q47.3633-67.9688 50.0977-66.5771Q52.832-65.1855 54.834-63.1348Q56.8359-61.084 58.2031-59.082Q59.2773-57.5684 60.1807-56.9092Q61.084-56.25 62.207-56.25Q63.3301-56.25 64.209-56.9336Q65.0879-57.6172 66.1621-59.082Q67.7734-61.1816 69.8486-63.2568Q71.9238-65.332 74.8047-66.6748Q77.6855-68.0176 81.7871-68.0176Q86.9141-68.0176 90.9424-65.625Q94.9707-63.2324 97.3145-58.9355Q99.6582-54.6387 99.6582-48.9746Q99.6582-42.5781 96.3867-35.791Q93.1152-29.0039 87.4512-22.3145ZM99.6582 10.8887Q100.879 12.0605 102.588 12.0605Q104.297 12.0605 105.469 10.8887Q106.641 9.66797 106.665 7.9834Q106.689 6.29883 105.469 5.07812L14.5508-85.791Q13.3301-87.0117 11.6211-87.0117Q9.91211-87.0117 8.69141-85.791Q7.51953-84.6191 7.51953-82.8857Q7.51953-81.1523 8.69141-79.9805Z"/>
  </g>
  <g id="Semibold-M" transform="matrix(1 0 0 1 1981.67 1126)">
   <path d="M80.127 0.830078L72.2168-7.08008Q69.9219-5.17578 67.4561-3.39355Q64.9902-1.61133 62.4512 0.0488281Q61.8164 0.537109 61.6211 0.537109Q61.377 0.537109 60.7422 0.0488281Q53.0273-5.07812 46.1914-11.0352Q39.3555-16.9922 34.1309-23.3887Q28.9062-29.7852 25.9521-36.2793Q22.998-42.7734 22.998-48.9746Q22.998-50.7324 23.291-52.2461Q23.584-53.7598 24.1699-55.127L15.1367-64.209Q13.4766-60.8887 12.5488-57.0557Q11.6211-53.2227 11.6211-48.9258Q11.6211-38.4766 17.1387-28.1982Q22.6562-17.9199 32.7148-8.22754Q42.7734 1.46484 56.2988 10.2539Q57.666 11.1328 59.1064 11.8652Q60.5469 12.5977 61.6211 12.5977Q62.6953 12.5977 64.1357 11.8652Q65.5762 11.1328 66.9434 10.2539Q74.1211 5.56641 80.127 0.830078ZM87.3047-21.2891L95.3613-13.2324Q103.076-21.8262 107.324-30.835Q111.572-39.8438 111.572-48.9258Q111.572-55.8594 109.326-61.5723Q107.08-67.2852 103.149-71.4355Q99.2188-75.5859 93.9697-77.832Q88.7207-80.0781 82.666-80.0781Q75.5371-80.0781 70.1904-77.1484Q64.8438-74.2188 61.6211-69.4824Q58.3984-74.2188 53.0273-77.1484Q47.6562-80.0781 40.5273-80.0781Q35.2539-80.0781 30.3711-78.2227L39.9414-68.6523Q40.9668-68.9453 42.2363-68.9453Q46.2402-68.9453 49.1943-67.4805Q52.1484-66.0156 54.2725-63.8184Q56.3965-61.6211 57.8613-59.4238Q58.8867-57.959 59.7168-57.3486Q60.5469-56.7383 61.6211-56.7383Q62.6465-56.7383 63.4521-57.373Q64.2578-58.0078 65.332-59.4238Q66.9434-61.6699 69.1162-63.8916Q71.2891-66.1133 74.3408-67.5537Q77.3926-68.9941 81.6406-68.9941Q86.9629-68.9941 91.1621-66.4795Q95.3613-63.9648 97.7783-59.4727Q100.195-54.9805 100.195-48.9746Q100.195-42.2363 96.7285-35.1807Q93.2617-28.125 87.3047-21.2891ZM98.584 10.1562Q99.7559 11.3281 101.416 11.3281Q103.076 11.3281 104.199 10.1562Q105.322 8.98438 105.347 7.34863Q105.371 5.71289 104.199 4.54102L14.3555-85.2539Q13.1348-86.4258 11.499-86.4502Q9.86328-86.4746 8.64258-85.2539Q7.51953-84.1309 7.51953-82.4463Q7.51953-80.7617 8.64258-79.6387Z"/>
  </g>
  <g id="Medium-M" transform="matrix(1 0 0 1 1685.42 1126)">
   <path d="M79.4922 0.195312L72.6074-6.73828Q70.1172-4.6875 67.4316-2.73438Q64.7461-0.78125 62.0605 1.02539Q61.3281 1.51367 61.1328 1.51367Q60.9375 1.51367 60.2539 1.02539Q52.5391-4.10156 45.5811-10.1074Q38.623-16.1133 33.2275-22.6318Q27.832-29.1504 24.7314-35.8643Q21.6309-42.5781 21.6309-49.0234Q21.6309-51.0742 21.9971-52.8564Q22.3633-54.6387 23.0957-56.25L15.2832-64.0137Q13.623-60.791 12.7197-57.0068Q11.8164-53.2227 11.8164-48.9746Q11.8164-38.5742 17.334-28.3447Q22.8516-18.1152 32.9102-8.42285Q42.9688 1.26953 56.6406 10.0586Q57.7148 10.7422 58.9844 11.3281Q60.2539 11.9141 61.1328 11.9141Q62.1094 11.9141 63.3545 11.3281Q64.5996 10.7422 65.7227 10.0586Q73.2422 5.17578 79.4922 0.195312ZM87.207-20.5078L94.2871-13.4277Q102.002-21.9727 106.226-30.9326Q110.449-39.8926 110.449-48.9746Q110.449-55.7129 108.301-61.3037Q106.152-66.8945 102.295-70.9473Q98.4375-75 93.2617-77.1973Q88.0859-79.3945 82.0801-79.3945Q75.1465-79.3945 69.7998-76.4648Q64.4531-73.5352 61.1328-68.7012Q57.9102-73.5352 52.5391-76.4648Q47.168-79.3945 40.1855-79.3945Q35.0098-79.3945 30.1758-77.5879L38.4277-69.3359Q39.5996-69.7266 41.1133-69.7266Q45.3613-69.7266 48.5107-68.1641Q51.6602-66.6016 53.8574-64.3066Q56.0547-62.0117 57.5684-59.7168Q58.6426-58.252 59.3994-57.6904Q60.1562-57.1289 61.1328-57.1289Q62.1094-57.1289 62.8662-57.7148Q63.623-58.3008 64.6973-59.7168Q66.3086-62.0117 68.5791-64.3555Q70.8496-66.6992 73.999-68.2129Q77.1484-69.7266 81.5918-69.7266Q87.0117-69.7266 91.333-67.1387Q95.6543-64.5508 98.1445-59.8877Q100.635-55.2246 100.635-49.0234Q100.635-41.9922 96.9727-34.7168Q93.3105-27.4414 87.207-20.5078ZM97.7539 9.66797Q98.9258 10.791 100.537 10.791Q102.148 10.791 103.271 9.66797Q104.395 8.49609 104.419 6.90918Q104.443 5.32227 103.271 4.15039L14.1602-84.8633Q13.0371-85.9863 11.4014-86.0107Q9.76562-86.0352 8.64258-84.8633Q7.51953-83.7891 7.51953-82.1533Q7.51953-80.5176 8.64258-79.3945Z"/>
  </g>
  <g id="Regular-M" transform="matrix(1 0 0 1 1389.3 1126)">
   <path d="M78.7109-0.634766L73.0957-6.25Q70.3613-4.00391 67.4316-1.85547Q64.502 0.292969 61.5723 2.24609Q60.7422 2.83203 60.5469 2.83203Q60.3516 2.83203 59.5703 2.24609Q51.9043-2.83203 44.7998-8.91113Q37.6953-14.9902 32.0801-21.6797Q26.4648-28.3691 23.1934-35.3271Q19.9219-42.2852 19.9219-49.0723Q19.9219-51.5137 20.3613-53.6621Q20.8008-55.8105 21.6309-57.7148L15.5273-63.8184Q13.8672-60.6445 12.9639-56.9336Q12.0605-53.2227 12.0605-49.0723Q12.0605-38.6719 17.5537-28.4912Q23.0469-18.3105 33.1543-8.66699Q43.2617 0.976562 57.0312 9.76562Q57.8125 10.2539 58.8135 10.6689Q59.8145 11.084 60.5469 11.084Q61.3281 11.084 62.3291 10.6689Q63.3301 10.2539 64.1113 9.76562Q72.1191 4.58984 78.7109-0.634766ZM87.1094-19.4824L92.8711-13.7207Q100.586-22.2168 104.81-31.1279Q109.033-40.0391 109.033-49.0723Q109.033-55.5664 106.958-60.9619Q104.883-66.3574 101.147-70.3125Q97.4121-74.2676 92.3584-76.416Q87.3047-78.5645 81.3477-78.5645Q74.5605-78.5645 69.2139-75.5859Q63.8672-72.6074 60.5469-67.6758Q57.2754-72.6074 51.9043-75.5859Q46.5332-78.5645 39.7461-78.5645Q34.6191-78.5645 29.8828-76.8066L36.4258-70.2637Q37.8418-70.7031 39.6484-70.7031Q44.2383-70.7031 47.6074-69.0674Q50.9766-67.4316 53.3203-64.9902Q55.6641-62.5488 57.2266-60.1074Q58.252-58.6426 58.96-58.1299Q59.668-57.6172 60.5469-57.6172Q61.4258-57.6172 62.1094-58.1543Q62.793-58.6914 63.8672-60.1074Q65.5273-62.5 67.8955-64.9658Q70.2637-67.4316 73.5596-69.0674Q76.8555-70.7031 81.4453-70.7031Q87.1094-70.7031 91.5771-67.9932Q96.0449-65.2832 98.6084-60.4248Q101.172-55.5664 101.172-49.0723Q101.172-41.6992 97.3145-34.1553Q93.457-26.6113 87.1094-19.4824ZM96.7285 8.98438Q97.8516 10.1074 99.4141 10.1074Q100.977 10.1074 102.051 8.98438Q103.125 7.86133 103.149 6.32324Q103.174 4.78516 102.051 3.66211L13.9648-84.375Q12.8418-85.4492 11.2793-85.4736Q9.7168-85.498 8.59375-84.375Q7.51953-83.3008 7.51953-81.7139Q7.51953-80.127 8.59375-79.0527Z"/>
  </g>
  <g id="Light-M" transform="matrix(1 0 0 1 1094 1126)">
   <path d="M77.7344-2.63672L73.3887-6.98242Q70.2637-4.3457 66.8701-1.85547Q63.4766 0.634766 60.0098 2.92969Q59.3262 3.41797 59.1309 3.41797Q58.9355 3.41797 58.3008 2.92969Q50.1953-2.44141 42.8711-8.64258Q35.5469-14.8438 29.8584-21.582Q24.1699-28.3203 20.8984-35.2783Q17.627-42.2363 17.627-49.0723Q17.627-52.2461 18.3105-54.9805Q18.9941-57.7148 20.3125-60.0098L15.6738-64.6484Q13.7207-61.377 12.6465-57.4707Q11.5723-53.5645 11.5723-49.0723Q11.5723-38.916 17.1143-28.9551Q22.6562-18.9941 32.6904-9.52148Q42.7246-0.0488281 56.1523 8.64258Q56.8359 9.08203 57.666 9.39941Q58.4961 9.7168 59.1309 9.7168Q59.8145 9.7168 60.6445 9.39941Q61.4746 9.08203 62.1582 8.64258Q70.6055 3.125 77.7344-2.63672ZM85.4492-18.2617L89.8438-13.8184Q97.8027-22.3145 102.271-31.2012Q106.738-40.0879 106.738-49.0723Q106.738-55.3711 104.712-60.5957Q102.686-65.8203 99.0479-69.6533Q95.4102-73.4863 90.5273-75.5615Q85.6445-77.6367 79.834-77.6367Q73.1934-77.6367 67.7246-74.5117Q62.2559-71.3867 59.1309-66.1133Q56.0059-71.3867 50.5371-74.5117Q45.0684-77.6367 38.4277-77.6367Q33.0078-77.6367 28.125-75.6348L33.1055-70.7031Q35.4492-71.6309 38.3789-71.6309Q42.9199-71.6309 46.3623-69.9951Q49.8047-68.3594 52.2705-65.7959Q54.7363-63.2324 56.3965-60.4004Q57.2266-59.1797 57.8125-58.7646Q58.3984-58.3496 59.1309-58.3496Q59.8633-58.3496 60.4492-58.7891Q61.0352-59.2285 61.8652-60.4004Q63.5742-63.1836 66.0889-65.7715Q68.6035-68.3594 71.9971-69.9951Q75.3906-71.6309 79.8828-71.6309Q85.8887-71.6309 90.5762-68.7744Q95.2637-65.918 97.9736-60.8643Q100.684-55.8105 100.684-49.0723Q100.684-41.3574 96.5088-33.5205Q92.334-25.6836 85.4492-18.2617ZM95.752 7.76367Q96.582 8.64258 97.8027 8.64258Q99.0234 8.64258 99.8535 7.76367Q100.732 6.88477 100.732 5.68848Q100.732 4.49219 99.8535 3.66211L12.5-83.6914Q11.6699-84.4727 10.4492-84.5215Q9.22852-84.5703 8.34961-83.6914Q7.51953-82.8613 7.51953-81.6162Q7.51953-80.3711 8.34961-79.541Z"/>
  </g>
  <g id="Thin-M" transform="matrix(1 0 0 1 799.147 1126)">
   <path d="M76.3672-5.27344L73.7793-7.91016Q70.1172-4.83398 66.1133-1.87988Q62.1094 1.07422 57.959 3.85742Q57.4707 4.19922 57.2754 4.19922Q57.0801 4.19922 56.6406 3.85742Q47.9492-1.9043 40.332-8.30078Q32.7148-14.6973 26.9287-21.46Q21.1426-28.2227 17.8467-35.2051Q14.5508-42.1875 14.5508-49.0723Q14.5508-53.2227 15.6006-56.7139Q16.6504-60.2051 18.5547-63.0371L15.918-65.7227Q13.5254-62.3535 12.207-58.1543Q10.8887-53.9551 10.8887-49.0723Q10.8887-39.209 16.5283-29.541Q22.168-19.873 32.1289-10.6445Q42.0898-1.41602 54.9805 7.12891Q55.4688 7.4707 56.1035 7.71484Q56.7383 7.95898 57.2754 7.95898Q57.8125 7.95898 58.4229 7.71484Q59.0332 7.4707 59.5215 7.12891Q68.6523 1.12305 76.3672-5.27344ZM83.252-16.6504L85.8887-14.0137Q94.1406-22.4121 98.9014-31.25Q103.662-40.0879 103.662-49.0723Q103.662-55.0781 101.733-60.083Q99.8047-65.0879 96.3135-68.7744Q92.8223-72.4609 88.1104-74.4629Q83.3984-76.4648 77.832-76.4648Q71.4355-76.4648 65.7959-73.0957Q60.1562-69.7266 57.2754-64.1113Q54.3457-69.7266 48.7305-73.0957Q43.1152-76.4648 36.7188-76.4648Q30.8105-76.4648 25.8301-74.1211L28.7109-71.2402Q32.2754-72.8516 36.7188-72.8516Q41.1621-72.8516 44.7021-71.1914Q48.2422-69.5312 50.9033-66.8213Q53.5645-64.1113 55.3223-60.791Q55.8594-59.9609 56.2988-59.6191Q56.7383-59.2773 57.2754-59.2773Q57.8613-59.2773 58.2764-59.6191Q58.6914-59.9609 59.1797-60.791Q61.0352-64.0625 63.6963-66.7969Q66.3574-69.5312 69.873-71.1914Q73.3887-72.8516 77.8809-72.8516Q84.2773-72.8516 89.2578-69.8242Q94.2383-66.7969 97.1191-61.4502Q100-56.1035 100-49.0723Q100-40.918 95.4346-32.7148Q90.8691-24.5117 83.252-16.6504ZM94.3848 6.15234Q94.9219 6.73828 95.6787 6.73828Q96.4355 6.73828 96.9727 6.15234Q97.5586 5.61523 97.5342 4.88281Q97.5098 4.15039 96.9727 3.61328L10.5469-82.7637Q10.0586-83.252 9.32617-83.2764Q8.59375-83.3008 8.00781-82.7637Q7.4707-82.2266 7.4707-81.4697Q7.4707-80.7129 8.00781-80.2246Z"/>
  </g>
  <g id="Ultralight-M" transform="matrix(1 0 0 1 503.388 1126)">
   <path d="M75.7324-6.64062L74.0234-8.39844Q70.0195-5.07812 65.7227-1.9043Q61.4258 1.26953 56.8848 4.3457Q56.543 4.58984 56.3477 4.58984Q56.1523 4.58984 55.7617 4.3457Q46.8262-1.61133 39.0625-8.10547Q31.2988-14.5996 25.4395-21.3867Q19.5801-28.1738 16.2842-35.1562Q12.9883-42.1387 12.9883-49.0723Q12.9883-53.7109 14.209-57.5928Q15.4297-61.4746 17.6758-64.5996L16.0156-66.2598Q13.4277-62.8906 11.9873-58.5449Q10.5469-54.1992 10.5469-49.0723Q10.5469-39.3555 16.2354-29.834Q21.9238-20.3125 31.8115-11.2061Q41.6992-2.09961 54.3945 6.34766Q54.834 6.68945 55.3467 6.86035Q55.8594 7.03125 56.3477 7.03125Q56.7871 7.03125 57.2998 6.86035Q57.8125 6.68945 58.2031 6.34766Q67.627 0.146484 75.7324-6.64062ZM82.1289-15.8203L83.8379-14.0625Q92.2852-22.5098 97.1924-31.3232Q102.1-40.1367 102.1-49.0723Q102.1-54.9316 100.195-59.8389Q98.291-64.7461 94.873-68.335Q91.4551-71.9238 86.8652-73.877Q82.2754-75.8301 76.8066-75.8301Q70.5078-75.8301 64.7949-72.3633Q59.082-68.8965 56.3477-63.0371Q53.5156-68.8965 47.8271-72.3633Q42.1387-75.8301 35.8398-75.8301Q29.7363-75.8301 24.6582-73.3398L26.416-71.5332Q30.6641-73.4863 35.8398-73.4863Q40.2344-73.4863 43.8232-71.8262Q47.4121-70.166 50.1709-67.3584Q52.9297-64.5508 54.7852-61.0352Q55.1758-60.3027 55.5176-60.0342Q55.8594-59.7656 56.3477-59.7656Q56.7871-59.7656 57.1289-60.0342Q57.4707-60.3027 57.8125-61.0352Q59.7168-64.5508 62.4756-67.3584Q65.2344-70.166 68.8232-71.8262Q72.4121-73.4863 76.8066-73.4863Q83.4473-73.4863 88.5986-70.3613Q93.75-67.2363 96.7041-61.7432Q99.6582-56.25 99.6582-49.0723Q99.6582-40.7227 94.8975-32.2998Q90.1367-23.877 82.1289-15.8203ZM93.75 5.37109Q94.0918 5.76172 94.6045 5.76172Q95.1172 5.76172 95.459 5.37109Q95.8984 4.93164 95.874 4.44336Q95.8496 3.95508 95.459 3.61328L9.57031-82.2754Q9.27734-82.5684 8.76465-82.6172Q8.25195-82.666 7.8125-82.2754Q7.4707-81.9336 7.4707-81.4209Q7.4707-80.9082 7.8125-80.5664Z"/>
  </g>
  <g id="Black-S" transform="matrix(1 0 0 1 2883.2 696)">
   <path d="M65.4297-4.29688L54.9316-14.7949Q53.9062-14.0137 52.8076-13.2568Q51.709-12.5 50.5859-11.7188Q50.3906-11.5723 50.1953-11.5723Q50.0488-11.5723 49.8047-11.7188Q43.5547-15.8691 38.7207-20.2881Q33.8867-24.707 30.542-29.1504Q27.1973-33.5938 25.4639-37.8418Q23.7305-42.0898 23.7305-45.8496Q23.7305-45.8984 23.7305-45.9473Q23.7305-45.9961 23.7305-46.0449L11.084-58.6914Q9.76562-55.8594 9.0332-52.5879Q8.30078-49.3164 8.30078-45.6543Q8.30078-37.4023 12.6465-29.1992Q16.9922-20.9961 24.7559-13.2812Q32.5195-5.56641 42.7246 1.31836Q44.873 2.73438 46.8506 3.85742Q48.8281 4.98047 50.1953 4.98047Q51.6113 4.98047 53.5889 3.85742Q55.5664 2.73438 57.666 1.31836Q59.668-0.0488281 61.6455-1.46484Q63.623-2.88086 65.4297-4.29688ZM68.7012-27.6367L79.248-17.0898Q85.3027-23.9746 88.6963-31.2012Q92.0898-38.4277 92.0898-45.6543Q92.0898-54.0527 88.5986-60.2051Q85.1074-66.3574 79.4189-69.751Q73.7305-73.1445 67.1875-73.1445Q61.0352-73.1445 56.8359-70.9473Q52.6367-68.75 50.1953-65.4297Q47.8027-68.75 43.5791-70.9473Q39.3555-73.1445 33.2031-73.1445Q28.8086-73.1445 24.707-71.5332L37.8418-58.3984Q37.9395-58.3984 37.9395-58.3984Q37.9395-58.3984 37.9883-58.3984Q39.9414-58.3984 41.5039-57.5439Q43.0664-56.6895 44.3115-55.4199Q45.5566-54.1504 46.4844-52.9297Q47.3145-51.7578 48.2178-51.123Q49.1211-50.4883 50.1953-50.4883Q51.3184-50.4883 52.1484-51.123Q52.9785-51.7578 53.8574-52.9297Q55.0293-54.3945 56.3965-55.6641Q57.7637-56.9336 59.668-57.7148Q61.5723-58.4961 64.3066-58.4961Q67.8223-58.4961 70.6055-56.8604Q73.3887-55.2246 75.0244-52.3926Q76.6602-49.5605 76.6602-45.8496Q76.6602-41.748 74.6338-37.1094Q72.6074-32.4707 68.7012-27.6367ZM80.6641 2.53906Q81.6895 3.51562 83.1543 3.54004Q84.6191 3.56445 85.5957 2.53906Q86.6211 1.51367 86.6211 0.0732422Q86.6211-1.36719 85.5957-2.39258L11.8164-76.123Q10.791-77.1484 9.32617-77.1484Q7.86133-77.1484 6.83594-76.123Q5.85938-75.1465 5.85938-73.6572Q5.85938-72.168 6.83594-71.1914Z"/>
  </g>
  <g id="Heavy-S" transform="matrix(1 0 0 1 2586.98 696)">
   <path d="M64.6484-4.98047L55.4688-14.1602Q54.1992-13.1836 52.8809-12.2559Q51.5625-11.3281 50.1953-10.4004Q49.9023-10.2051 49.707-10.2051Q49.5605-10.2051 49.2188-10.4004Q43.0664-14.502 38.0859-18.9941Q33.1055-23.4863 29.5166-28.1006Q25.9277-32.7148 23.999-37.2559Q22.0703-41.7969 22.0703-45.8984Q22.0703-46.2891 22.1191-46.6553Q22.168-47.0215 22.2656-47.3633L11.3281-58.3496Q10.0586-55.6152 9.35059-52.4414Q8.64258-49.2676 8.64258-45.752Q8.64258-37.5 12.9639-29.3213Q17.2852-21.1426 25.0977-13.4521Q32.9102-5.76172 43.2617 1.12305Q45.0684 2.34375 46.7773 3.27148Q48.4863 4.19922 49.707 4.19922Q50.9277 4.19922 52.6367 3.27148Q54.3457 2.34375 56.1035 1.12305Q58.3496-0.341797 60.5225-1.87988Q62.6953-3.41797 64.6484-4.98047ZM68.75-26.6602L78.0273-17.3828Q84.082-24.2188 87.4268-31.3965Q90.7715-38.5742 90.7715-45.752Q90.7715-53.8086 87.4268-59.7656Q84.082-65.7227 78.5645-69.0186Q73.0469-72.3145 66.5527-72.3145Q60.5469-72.3145 56.3721-70.1172Q52.1973-67.9199 49.707-64.4531Q47.2656-67.8711 43.042-70.0928Q38.8184-72.3145 32.8613-72.3145Q28.6133-72.3145 24.6094-70.8008L36.0352-59.375Q36.1816-59.375 36.2793-59.375Q36.377-59.375 36.5234-59.375Q38.8672-59.375 40.6494-58.4229Q42.4316-57.4707 43.8232-56.0791Q45.2148-54.6875 46.1914-53.3203Q47.0215-52.1484 47.876-51.5381Q48.7305-50.9277 49.707-50.9277Q50.7324-50.9277 51.5137-51.5381Q52.2949-52.1484 53.1738-53.3203Q54.3945-54.834 55.8594-56.25Q57.3242-57.666 59.375-58.5693Q61.4258-59.4727 64.3555-59.4727Q68.0664-59.4727 70.9961-57.7393Q73.9258-56.0059 75.6348-52.9541Q77.3438-49.9023 77.3438-45.8984Q77.3438-41.4551 75.0977-36.5479Q72.8516-31.6406 68.75-26.6602ZM79.6387 1.95312Q80.6152 2.92969 82.0801 2.92969Q83.5449 2.92969 84.5215 1.95312Q85.498 0.927734 85.5225-0.512695Q85.5469-1.95312 84.5215-2.92969L11.7676-75.6348Q10.7422-76.6602 9.30176-76.6602Q7.86133-76.6602 6.83594-75.6348Q5.85938-74.6582 5.85938-73.1934Q5.85938-71.7285 6.83594-70.752Z"/>
  </g>
  <g id="Bold-S" transform="matrix(1 0 0 1 2290.81 696)">
   <path d="M63.7695-5.71289L56.0547-13.4766Q54.541-12.3047 52.9541-11.1816Q51.3672-10.0586 49.8047-8.98438Q49.3164-8.64258 49.1699-8.64258Q49.0234-8.64258 48.5352-8.98438Q42.5293-12.9883 37.3779-17.5293Q32.2266-22.0703 28.3691-26.9043Q24.5117-31.7383 22.3633-36.5967Q20.2148-41.4551 20.2148-45.9961Q20.2148-46.7773 20.3369-47.5098Q20.459-48.2422 20.6543-48.877L11.5723-57.959Q10.3516-55.3223 9.66797-52.2949Q8.98438-49.2676 8.98438-45.8984Q8.98438-37.6465 13.3057-29.4922Q17.627-21.3379 25.4639-13.6719Q33.3008-6.00586 43.8965 0.927734Q45.3125 1.85547 46.7285 2.6123Q48.1445 3.36914 49.1699 3.36914Q50.1953 3.36914 51.6113 2.6123Q53.0273 1.85547 54.3945 0.927734Q56.8848-0.683594 59.2529-2.36816Q61.6211-4.05273 63.7695-5.71289ZM68.8477-25.5859L76.709-17.7246Q82.7148-24.5117 86.0107-31.6162Q89.3066-38.7207 89.3066-45.8984Q89.3066-53.5156 86.1328-59.2529Q82.959-64.9902 77.6123-68.1885Q72.2656-71.3867 65.8203-71.3867Q60.0586-71.3867 55.8838-69.165Q51.709-66.9434 49.1699-63.4277Q46.6309-66.9434 42.4561-69.165Q38.2812-71.3867 32.4707-71.3867Q28.3691-71.3867 24.4629-69.9707L33.9844-60.4492Q34.2285-60.498 34.4238-60.498Q34.6191-60.498 34.8633-60.498Q37.6465-60.498 39.7217-59.4482Q41.7969-58.3984 43.3105-56.8359Q44.8242-55.2734 45.8496-53.7598Q46.7285-52.5391 47.4854-52.002Q48.2422-51.4648 49.1699-51.4648Q50.0977-51.4648 50.8057-52.002Q51.5137-52.5391 52.4414-53.7598Q53.6621-55.3711 55.2246-56.9336Q56.7871-58.4961 59.0332-59.5215Q61.2793-60.5469 64.4531-60.5469Q68.3594-60.5469 71.4355-58.7158Q74.5117-56.8848 76.2939-53.6133Q78.0762-50.3418 78.0762-45.9961Q78.0762-41.1133 75.6348-35.9131Q73.1934-30.7129 68.8477-25.5859ZM78.4668 1.26953Q79.4434 2.24609 80.8838 2.27051Q82.3242 2.29492 83.3008 1.26953Q84.2773 0.292969 84.3018-1.14746Q84.3262-2.58789 83.3008-3.56445L11.7188-75.0977Q10.6934-76.123 9.27734-76.123Q7.86133-76.123 6.83594-75.0977Q5.85938-74.1211 5.85938-72.6807Q5.85938-71.2402 6.83594-70.2637Z"/>
  </g>
  <g id="Semibold-S" transform="matrix(1 0 0 1 1994.49 696)">
   <path d="M63.1836-6.25L56.4453-12.9883Q54.7363-11.6699 52.9785-10.4004Q51.2207-9.13086 49.4629-7.95898Q48.9258-7.56836 48.7793-7.56836Q48.6328-7.56836 48.0957-7.95898Q42.1387-11.9141 36.8652-16.5039Q31.5918-21.0938 27.5635-26.0742Q23.5352-31.0547 21.2402-36.1328Q18.9453-41.2109 18.9453-45.9961Q18.9453-47.1191 19.0918-48.0713Q19.2383-49.0234 19.4824-49.9023L11.7676-57.7148Q10.5469-55.127 9.8877-52.1729Q9.22852-49.2188 9.22852-45.9473Q9.22852-37.6953 13.5254-29.5898Q17.8223-21.4844 25.708-13.8184Q33.5938-6.15234 44.3359 0.78125Q45.459 1.51367 46.6797 2.12402Q47.9004 2.73438 48.7793 2.73438Q49.6582 2.73438 50.8789 2.12402Q52.0996 1.51367 53.2227 0.78125Q55.8594-0.927734 58.374-2.68555Q60.8887-4.44336 63.1836-6.25ZM68.8965-24.8047L75.7812-17.9199Q81.7871-24.6582 85.0342-31.7383Q88.2812-38.8184 88.2812-45.9473Q88.2812-53.3203 85.2051-58.9111Q82.1289-64.502 76.9043-67.627Q71.6797-70.752 65.332-70.752Q59.668-70.752 55.5176-68.5303Q51.3672-66.3086 48.7793-62.6465Q46.1914-66.2598 42.0166-68.5059Q37.8418-70.752 32.2266-70.752Q28.1738-70.752 24.3652-69.3848L32.5684-61.1816Q32.8613-61.2305 33.1299-61.2549Q33.3984-61.2793 33.6914-61.2793Q36.7676-61.2793 39.0381-60.1318Q41.3086-58.9844 42.9199-57.3242Q44.5312-55.6641 45.6055-54.0527Q46.4844-52.832 47.1924-52.3193Q47.9004-51.8066 48.7793-51.8066Q49.6094-51.8066 50.293-52.3193Q50.9766-52.832 51.9043-54.0527Q53.125-55.7129 54.7852-57.373Q56.4453-59.0332 58.7891-60.1562Q61.1328-61.2793 64.4531-61.2793Q68.5059-61.2793 71.7041-59.375Q74.9023-57.4707 76.7578-54.0283Q78.6133-50.5859 78.6133-45.9961Q78.6133-40.8691 76.001-35.4492Q73.3887-30.0293 68.8965-24.8047ZM77.6367 0.830078Q78.6133 1.80664 80.0537 1.80664Q81.4941 1.80664 82.4219 0.830078Q83.4473-0.195312 83.4473-1.58691Q83.4473-2.97852 82.4219-4.00391L11.6699-74.707Q10.6445-75.7324 9.22852-75.7324Q7.8125-75.7324 6.78711-74.707Q5.85938-73.7305 5.85938-72.29Q5.85938-70.8496 6.78711-69.9219Z"/>
  </g>
  <g id="Medium-S" transform="matrix(1 0 0 1 1698.07 696)">
   <path d="M62.6953-6.64062L56.7383-12.6465Q54.9316-11.2305 53.0518-9.83887Q51.1719-8.44727 49.2676-7.17773Q48.6328-6.78711 48.4863-6.78711Q48.3398-6.78711 47.7051-7.17773Q41.8457-11.084 36.4746-15.7227Q31.1035-20.3613 26.9531-25.4639Q22.8027-30.5664 20.3857-35.791Q17.9688-41.0156 17.9688-46.0449Q17.9688-47.3633 18.1396-48.5107Q18.3105-49.6582 18.6523-50.6836L11.8652-57.4707Q10.7422-54.9805 10.083-52.0996Q9.42383-49.2188 9.42383-45.9961Q9.42383-37.7441 13.7207-29.6387Q18.0176-21.5332 25.9033-13.8916Q33.7891-6.25 44.6289 0.683594Q45.6055 1.26953 46.6553 1.78223Q47.7051 2.29492 48.4863 2.29492Q49.2676 2.29492 50.3418 1.78223Q51.416 1.26953 52.2949 0.683594Q55.0781-1.07422 57.7148-2.92969Q60.3516-4.78516 62.6953-6.64062ZM68.9453-24.2188L75.0977-18.1152Q81.0547-24.8047 84.3018-31.8604Q87.5488-38.916 87.5488-45.9961Q87.5488-53.1738 84.5459-58.6426Q81.543-64.1113 76.416-67.1875Q71.2891-70.2637 64.9414-70.2637Q59.375-70.2637 55.249-68.0176Q51.123-65.7715 48.4863-62.1094Q45.8984-65.7227 41.7236-67.9932Q37.5488-70.2637 31.9824-70.2637Q28.0273-70.2637 24.3164-68.9453L31.4941-61.7188Q31.8359-61.8164 32.1533-61.8408Q32.4707-61.8652 32.8125-61.8652Q36.1328-61.8652 38.5498-60.6689Q40.9668-59.4727 42.6514-57.7148Q44.3359-55.957 45.459-54.2969Q46.2891-53.0273 46.9727-52.5391Q47.6562-52.0508 48.4863-52.0508Q49.2676-52.0508 49.9268-52.5391Q50.5859-53.0273 51.5137-54.2969Q52.7344-55.957 54.4434-57.7148Q56.1523-59.4727 58.5938-60.6689Q61.0352-61.8652 64.502-61.8652Q68.6523-61.8652 71.9238-59.8877Q75.1953-57.9102 77.0996-54.3457Q79.0039-50.7812 79.0039-46.0449Q79.0039-40.7227 76.2695-35.1318Q73.5352-29.541 68.9453-24.2188ZM77.002 0.439453Q78.0273 1.41602 79.4434 1.44043Q80.8594 1.46484 81.7871 0.439453Q82.7637-0.537109 82.7881-1.92871Q82.8125-3.32031 81.7871-4.29688L11.6699-74.4629Q10.6445-75.4395 9.22852-75.4395Q7.8125-75.4395 6.78711-74.4629Q5.85938-73.4863 5.85938-72.0459Q5.85938-70.6055 6.78711-69.6777Z"/>
  </g>
  <g id="Regular-S" transform="matrix(1 0 0 1 1401.72 696)">
   <path d="M62.1094-7.12891L57.1289-12.1582Q55.127-10.5957 53.0762-9.08203Q51.0254-7.56836 48.9746-6.20117Q48.2422-5.71289 48.0957-5.71289Q47.9492-5.71289 47.2656-6.20117Q41.4551-10.0586 35.9863-14.7461Q30.5176-19.4336 26.1719-24.6582Q21.8262-29.8828 19.2627-35.3271Q16.6992-40.7715 16.6992-46.0938Q16.6992-47.6562 16.9189-49.0479Q17.1387-50.4395 17.5293-51.709L12.0605-57.2266Q10.9375-54.7852 10.3027-51.9775Q9.66797-49.1699 9.66797-46.0938Q9.66797-37.8418 13.9404-29.7607Q18.2129-21.6797 26.1475-14.0381Q34.082-6.39648 45.0684 0.537109Q45.752 0.976562 46.6064 1.34277Q47.4609 1.70898 48.0957 1.70898Q48.7305 1.70898 49.6094 1.34277Q50.4883 0.976562 51.123 0.537109Q54.0527-1.31836 56.8359-3.24707Q59.6191-5.17578 62.1094-7.12891ZM68.9941-23.4863L74.1699-18.3105Q80.127-25 83.3252-32.0068Q86.5234-39.0137 86.5234-46.0938Q86.5234-52.9785 83.6426-58.3008Q80.7617-63.623 75.7568-66.626Q70.752-69.6289 64.4531-69.6289Q59.0332-69.6289 54.9072-67.3828Q50.7812-65.1367 48.0957-61.377Q45.459-65.0879 41.3086-67.3584Q37.1582-69.6289 31.7383-69.6289Q27.8809-69.6289 24.2188-68.3594L30.127-62.4512Q30.4688-62.5488 30.8838-62.5732Q31.2988-62.5977 31.6895-62.5977Q35.3027-62.5977 37.8906-61.3281Q40.4785-60.0586 42.2607-58.2031Q44.043-56.3477 45.2148-54.5898Q46.0938-53.3203 46.7285-52.8564Q47.3633-52.3926 48.0957-52.3926Q48.8281-52.3926 49.4385-52.8564Q50.0488-53.3203 50.9766-54.5898Q52.2461-56.2988 54.0283-58.1543Q55.8105-60.0098 58.374-61.3037Q60.9375-62.5977 64.5508-62.5977Q68.8477-62.5977 72.2168-60.5469Q75.5859-58.4961 77.5391-54.7852Q79.4922-51.0742 79.4922-46.0938Q79.4922-40.4785 76.6113-34.6924Q73.7305-28.9062 68.9941-23.4863ZM76.2207 0Q77.1973 0.976562 78.6133 0.976562Q80.0293 0.976562 80.957 0Q81.9336-0.976562 81.958-2.36816Q81.9824-3.75977 80.957-4.73633L11.6211-74.0723Q10.5957-75.0488 9.2041-75.0488Q7.8125-75.0488 6.78711-74.0723Q5.85938-73.0957 5.85938-71.6797Q5.85938-70.2637 6.78711-69.3359Z"/>
  </g>
  <g id="Light-S" transform="matrix(1 0 0 1 1106.26 696)">
   <path d="M61.2305-8.93555L57.373-12.793Q55.0293-10.9375 52.5635-9.10645Q50.0977-7.27539 47.6074-5.56641Q47.0215-5.17578 46.875-5.17578Q46.7285-5.17578 46.1426-5.56641Q39.9414-9.7168 34.3018-14.5264Q28.6621-19.3359 24.2188-24.585Q19.7754-29.834 17.2119-35.2783Q14.6484-40.7227 14.6484-46.0938Q14.6484-48.291 15.1123-50.1953Q15.5762-52.0996 16.3574-53.7598L12.207-57.959Q10.791-55.4199 10.0098-52.4414Q9.22852-49.4629 9.22852-46.0938Q9.22852-38.0371 13.5498-30.1514Q17.8711-22.2656 25.7568-14.7705Q33.6426-7.27539 44.3359-0.439453Q44.873-0.0976562 45.5811 0.219727Q46.2891 0.537109 46.875 0.537109Q47.4121 0.537109 48.1445 0.219727Q48.877-0.0976562 49.4141-0.439453Q52.5879-2.49023 55.5664-4.61426Q58.5449-6.73828 61.2305-8.93555ZM67.5293-22.4121L71.5332-18.4082Q77.6855-25.0977 81.0791-32.0557Q84.4727-39.0137 84.4727-46.0938Q84.4727-52.7344 81.6895-57.8613Q78.9062-62.9883 74.0723-65.918Q69.2383-68.8477 63.1348-68.8477Q57.8613-68.8477 53.6133-66.4307Q49.3652-64.0137 46.875-60.0098Q44.3359-64.0137 40.0879-66.4307Q35.8398-68.8477 30.5664-68.8477Q26.4648-68.8477 22.6562-67.334L27.1973-62.8418Q27.9297-63.1348 28.8086-63.2568Q29.6875-63.3789 30.5664-63.3789Q34.1309-63.3789 36.792-62.1094Q39.4531-60.8398 41.333-58.8867Q43.2129-56.9336 44.4824-54.834Q45.166-53.8086 45.7031-53.418Q46.2402-53.0273 46.875-53.0273Q47.4609-53.0273 47.9736-53.418Q48.4863-53.8086 49.2188-54.834Q50.5371-56.8848 52.4414-58.8379Q54.3457-60.791 56.9824-62.085Q59.6191-63.3789 63.1836-63.3789Q67.7734-63.3789 71.3379-61.2061Q74.9023-59.0332 76.9775-55.1514Q79.0527-51.2695 79.0527-46.0938Q79.0527-40.1855 75.9033-34.1553Q72.7539-28.125 67.5293-22.4121ZM75.3418-1.07422Q76.123-0.292969 77.2217-0.292969Q78.3203-0.292969 79.0527-1.07422Q79.834-1.85547 79.834-2.92969Q79.834-4.00391 79.0527-4.73633L10.3516-73.4375Q9.57031-74.2188 8.47168-74.2188Q7.37305-74.2188 6.5918-73.4375Q5.85938-72.7051 5.85938-71.6064Q5.85938-70.5078 6.5918-69.7754Z"/>
  </g>
  <g id="Thin-S" transform="matrix(1 0 0 1 811.207 696)">
   <path d="M60.0586-11.2793L57.7148-13.623Q54.9316-11.3281 51.9287-9.10645Q48.9258-6.88477 45.752-4.73633Q45.3613-4.49219 45.2148-4.49219Q45.0684-4.49219 44.6777-4.73633Q37.9883-9.22852 32.0801-14.1846Q26.1719-19.1406 21.6309-24.4385Q17.0898-29.7363 14.5264-35.2051Q11.9629-40.6738 11.9629-46.0938Q11.9629-49.1211 12.7197-51.7334Q13.4766-54.3457 14.8438-56.4453L12.4023-58.9355Q10.6445-56.2988 9.64355-53.0518Q8.64258-49.8047 8.64258-46.0938Q8.64258-38.2812 13.0371-30.6396Q17.4316-22.998 25.2441-15.7227Q33.0566-8.44727 43.3105-1.75781Q43.7012-1.46484 44.2383-1.26953Q44.7754-1.07422 45.2148-1.07422Q45.6543-1.07422 46.1914-1.26953Q46.7285-1.46484 47.1191-1.75781Q50.5859-4.05273 53.8574-6.44531Q57.1289-8.83789 60.0586-11.2793ZM65.625-20.9473L68.0176-18.5547Q74.4141-25.1953 78.1006-32.1289Q81.7871-39.0625 81.7871-46.0938Q81.7871-52.3926 79.1016-57.2754Q76.416-62.1582 71.8018-64.9658Q67.1875-67.7734 61.377-67.7734Q56.2988-67.7734 51.9287-65.1611Q47.5586-62.5488 45.2148-58.2031Q42.8711-62.5488 38.501-65.1611Q34.1309-67.7734 29.0527-67.7734Q24.5605-67.7734 20.6543-66.0156L23.291-63.3789Q24.6094-63.916 26.0498-64.1846Q27.4902-64.4531 29.0527-64.4531Q32.5684-64.4531 35.3027-63.1592Q38.0371-61.8652 40.0879-59.7656Q42.1387-57.666 43.5547-55.1758Q43.9941-54.4434 44.3848-54.1504Q44.7754-53.8574 45.2148-53.8574Q45.6543-53.8574 46.0205-54.1504Q46.3867-54.4434 46.875-55.1758Q48.291-57.666 50.3174-59.7656Q52.3438-61.8652 55.1025-63.1592Q57.8613-64.4531 61.377-64.4531Q66.3086-64.4531 70.166-62.1338Q74.0234-59.8145 76.2451-55.6641Q78.4668-51.5137 78.4668-46.0938Q78.4668-39.7949 74.9512-33.4229Q71.4355-27.0508 65.625-20.9473ZM74.2188-2.49023Q74.6582-2.00195 75.3662-2.00195Q76.0742-2.00195 76.5137-2.49023Q77.002-2.97852 77.002-3.6377Q77.002-4.29688 76.5137-4.78516L8.64258-72.6074Q8.1543-73.0957 7.49512-73.1201Q6.83594-73.1445 6.34766-72.6074Q5.85938-72.168 5.85938-71.4844Q5.85938-70.8008 6.34766-70.3613Z"/>
  </g>
  <g id="Ultralight-S" transform="matrix(1 0 0 1 515.326 696)">
   <path d="M59.4727-12.5L57.9102-14.0625Q54.8828-11.5723 51.5869-9.10645Q48.291-6.64062 44.8242-4.3457Q44.5312-4.10156 44.3848-4.10156Q44.2383-4.10156 43.8965-4.3457Q36.9629-8.98438 30.9326-14.0381Q24.9023-19.0918 20.2881-24.3896Q15.6738-29.6875 13.1104-35.1562Q10.5469-40.625 10.5469-46.0938Q10.5469-49.5605 11.4746-52.5146Q12.4023-55.4688 14.0625-57.8613L12.5-59.4238Q10.5469-56.7383 9.44824-53.3691Q8.34961-50 8.34961-46.0938Q8.34961-38.4277 12.793-30.9082Q17.2363-23.3887 25-16.2354Q32.7637-9.08203 42.8223-2.39258Q43.1152-2.19727 43.5303-2.02637Q43.9453-1.85547 44.3848-1.85547Q44.7266-1.85547 45.166-2.02637Q45.6055-2.19727 45.9473-2.39258Q49.6094-4.88281 53.0029-7.39746Q56.3965-9.91211 59.4727-12.5ZM64.6484-20.2148L66.2109-18.6523Q72.7539-25.2441 76.5625-32.1533Q80.3711-39.0625 80.3711-46.0938Q80.3711-52.2461 77.7832-57.0068Q75.1953-61.7676 70.6787-64.502Q66.1621-67.2363 60.4492-67.2363Q55.4688-67.2363 51.0254-64.5264Q46.582-61.8164 44.3848-57.2754Q42.1387-61.8164 37.6953-64.5264Q33.252-67.2363 28.2715-67.2363Q23.584-67.2363 19.5801-65.332L21.2891-63.623Q22.9004-64.3066 24.6582-64.6484Q26.416-64.9902 28.2715-64.9902Q31.7383-64.9902 34.5459-63.6963Q37.3535-62.4023 39.4775-60.2295Q41.6016-58.0566 43.0664-55.3711Q43.3594-54.7852 43.6768-54.541Q43.9941-54.2969 44.3848-54.2969Q44.7266-54.2969 45.0195-54.541Q45.3125-54.7852 45.6543-55.3711Q47.1191-58.0566 49.2432-60.2295Q51.3672-62.4023 54.1748-63.6963Q56.9824-64.9902 60.4492-64.9902Q65.5762-64.9902 69.5801-62.5732Q73.584-60.1562 75.8789-55.9082Q78.1738-51.6602 78.1738-46.0938Q78.1738-39.5508 74.4873-33.0322Q70.8008-26.5137 64.6484-20.2148ZM73.6328-3.22266Q73.9258-2.88086 74.4141-2.88086Q74.9023-2.88086 75.1953-3.22266Q75.5859-3.56445 75.5615-4.00391Q75.5371-4.44336 75.1953-4.78516L7.76367-72.2168Q7.4707-72.5098 7.00684-72.5586Q6.54297-72.6074 6.20117-72.2168Q5.85938-71.875 5.85938-71.4111Q5.85938-70.9473 6.20117-70.6543Z"/>
  </g>
 </g>
</svg>
